<?xml version="1.0" standalone="no"?>
<!DOCTYPE svg PUBLIC "-//W3C//DTD SVG 1.1//EN" "http://www.w3.org/Graphics/SVG/1.1/DTD/svg11.dtd" >
<svg xmlns="http://www.w3.org/2000/svg" xmlns:xlink="http://www.w3.org/1999/xlink" version="1.1">
<metadata>
Created by FontForge 20150102 at Sat Mar 14 09:55:58 2015
 By uniteet7
Copyright (c) Christian Schwartz, 2007. All rights reserved.
</metadata>
<defs>
<font id="BBVAWebLight-BoldItalic" horiz-adv-x="1229" >
  <font-face 
    font-family="BBVA Web Light"
    font-weight="600"
    font-style="italic"
    font-stretch="normal"
    units-per-em="2048"
    panose-1="2 11 6 3 4 0 0 2 0 4"
    ascent="1638"
    descent="-410"
    x-height="1075"
    cap-height="1434"
    bbox="-485 -358 2421 1895"
    underline-thickness="102"
    underline-position="-103"
    slope="-13"
    unicode-range="U+0020-FB02"
  />
<missing-glyph horiz-adv-x="1024" 
 />
    <glyph glyph-name=".notdef" horiz-adv-x="1024" 
 />
    <glyph glyph-name="Eth" unicode="&#xd0;" horiz-adv-x="1421" 
d="M72 823h125l141 611h440q146 0 261 -38.5t195 -113t122.5 -184t42.5 -250.5q0 -106 -22 -210.5t-66.5 -198.5t-111.5 -174.5t-156 -139.5t-200 -92t-245 -33h-275h-315l139 604h-124zM588 225q94 0 166.5 28t126 76t90 111t59 132t32 140t9.5 136q0 73 -14.5 138
t-49 113.5t-92 76.5t-143.5 28h-168l-88 -381h305l-49 -219h-307l-86 -379h209z" />
    <glyph glyph-name="eth" unicode="&#xf0;" horiz-adv-x="1167" 
d="M408 1133l92 77q-23 10 -47.5 18.5t-49.5 14.5l46 191h100q40 -11 77 -25t72 -31l62 54h176v-50l-100 -86q133 -102 204.5 -253t71.5 -347q0 -177 -44 -309.5t-122 -221t-185.5 -133t-234.5 -44.5q-114 0 -201.5 32.5t-147.5 91.5t-91 142t-31 184q0 135 43 245.5
t113 189t158 121t178 42.5q83 0 136.5 -23t88.5 -67q-20 53 -54.5 98t-80.5 82l-51 -43h-178v50zM537 195q70 0 123 37.5t87.5 97t52 134.5t17.5 150q0 110 -52.5 165t-141.5 55q-69 0 -121 -34t-86 -91t-51 -131.5t-17 -155.5q0 -106 46.5 -166.5t142.5 -60.5z" />
    <glyph glyph-name="Lslash" unicode="&#x141;" horiz-adv-x="1094" 
d="M25 643l143 49l170 742h319l-143 -619l412 146l-52 -230l-413 -145l-82 -361h577l-51 -225h-578h-319l107 463l-142 -49z" />
    <glyph glyph-name="lslash" unicode="&#x142;" horiz-adv-x="539" 
d="M45 760l137 65l140 609h180q29 0 50 -6t31.5 -24t10.5 -51t-12 -87l-64 -281l146 70l-52 -219l-145 -70l-174 -766h-299l137 606l-135 -65z" />
    <glyph glyph-name="Scaron" unicode="&#x160;" horiz-adv-x="1085" 
d="M455 -16q-87 0 -159 12.5t-130.5 34t-103.5 49t-78 57.5l49 219h106q25 -32 56 -58.5t71 -45.5t89.5 -30t111.5 -11q46 0 90.5 10t79.5 33t56.5 61.5t21.5 94.5q0 40 -16 67t-47.5 48.5t-77.5 40.5t-105 42q-72 28 -129 63t-96 81t-59.5 105t-20.5 134q0 109 37 194.5
t105 144t163.5 89.5t212.5 31q136 0 242 -37t186 -100l-49 -207h-105q-29 28 -59.5 49.5t-65.5 36.5t-76 23t-91 8q-42 0 -80.5 -10t-68.5 -32t-48 -55.5t-18 -81.5q0 -38 12.5 -64.5t40 -47.5t73 -41t111.5 -45q72 -28 132.5 -60.5t104 -77.5t67.5 -105.5t24 -143.5
q0 -116 -40 -204.5t-113 -148.5t-176 -91t-230 -31zM1014 1673l-216 -194h-204l-150 194v76h168l107 -86l143 86h152v-76z" />
    <glyph glyph-name="scaron" unicode="&#x161;" horiz-adv-x="889" 
d="M336 -12q-71 0 -129 9t-104 23.5t-80.5 33t-59.5 36.5l47 203h96q35 -40 94 -67t144 -27q35 0 66.5 6t55 18.5t37 32.5t13.5 49q0 21 -8.5 37t-25.5 29t-43.5 24.5t-63.5 24.5q-68 24 -120 51t-87 62t-53.5 81.5t-18.5 108.5q0 84 30 151.5t86.5 114t137.5 71.5t182 25
q61 0 112 -8t93.5 -22t77 -32t62.5 -38l-46 -188h-90q-34 31 -90.5 55.5t-130.5 24.5q-78 0 -116.5 -26.5t-38.5 -76.5q0 -18 7.5 -32.5t24.5 -27.5t45 -25.5t70 -26.5q61 -22 112.5 -46.5t89 -58.5t58.5 -80t21 -110q0 -88 -32 -158t-91 -119t-143.5 -75.5t-190.5 -26.5z
M287 1358v76h168l105 -97l145 97h152v-76l-217 -207h-205z" />
    <glyph glyph-name="Yacute" unicode="&#xdd;" horiz-adv-x="1212" 
d="M473 575l-254 768v91h297l180 -594h4l430 594h244v-91l-590 -798l-125 -545h-319zM735 1542l96 199h291v-86l-225 -176h-162v63z" />
    <glyph glyph-name="yacute" unicode="&#xfd;" horiz-adv-x="1061" 
d="M35 -252l248 367l-156 882v78h281l98 -641h4l358 641h246v-78l-807 -1329h-272v80zM541 1214l107 220h290v-86l-235 -197h-162v63z" />
    <glyph glyph-name="Thorn" unicode="&#xde;" horiz-adv-x="1210" 
d="M338 1434h319l-61 -265h109q248 0 373.5 -102t125.5 -289q0 -122 -44 -214.5t-126 -155t-200.5 -94t-266.5 -31.5h-176l-63 -283h-320zM584 498q150 0 231.5 68.5t81.5 221.5q0 36 -11 64.5t-36 48t-66 29.5t-102 10h-139l-103 -442h144z" />
    <glyph glyph-name="thorn" unicode="&#xfe;" horiz-adv-x="1180" 
d="M319 1434h183q29 0 50 -6t31.5 -24t10.5 -51t-12 -87l-70 -310q60 59 143 97.5t185 38.5q57 0 111 -22.5t95 -70.5t66 -123.5t25 -181.5q0 -164 -41.5 -291t-115 -214t-175 -132t-221.5 -45q-97 0 -160.5 26.5t-104.5 63.5l-98 -434h-303zM705 870q-59 0 -115.5 -24
t-118.5 -68l-115 -506q23 -21 63.5 -41t106.5 -20q78 0 137 35.5t98.5 99t59 151t19.5 191.5q0 91 -37.5 136.5t-97.5 45.5z" />
    <glyph glyph-name="Zcaron" unicode="&#x17d;" horiz-adv-x="1143" 
d="M-8 242l870 956v8h-596l53 228h967l-57 -248l-873 -957v-8h650l-50 -221h-1019zM1127 1673l-216 -194h-204l-150 194v76h168l107 -86l143 86h152v-76z" />
    <glyph glyph-name="zcaron" unicode="&#x17e;" horiz-adv-x="971" 
d="M-23 207l646 657h-463l49 211h817l-47 -209l-651 -655h485l-49 -211h-834zM380 1358v76h168l105 -97l145 97h152v-76l-217 -207h-205z" />
    <glyph glyph-name="onehalf" unicode="&#xbd;" horiz-adv-x="1583" 
d="M352 1198l-119 -55h-45l41 176l244 115h174l-182 -789h-240zM1303 1493h223l-1288 -1563h-224zM866 178l244 176q37 26 68.5 51t55 50t37 49.5t13.5 50.5q0 34 -21 53t-67 19t-85 -16t-67 -38h-77l39 170q49 28 107 43t132 15q70 0 122.5 -16t88 -44.5t53 -69t17.5 -89.5
q0 -48 -17.5 -89t-52 -80t-84.5 -77t-115 -80l-131 -84h316l-41 -172h-576z" />
    <glyph glyph-name="onequarter" unicode="&#xbc;" horiz-adv-x="1487" 
d="M352 1198l-119 -55h-45l41 176l244 115h174l-182 -789h-240zM1303 1493h223l-1288 -1563h-224zM1063 162h-358l40 174l463 452h217l-110 -477h82l-35 -149h-82l-37 -162h-217zM1100 311l57 244h-6l-246 -240v-4h195z" />
    <glyph glyph-name="threequarters" unicode="&#xbe;" horiz-adv-x="1581" 
d="M377 633q-84 0 -155 22.5t-124 65.5l33 143h80q9 -11 23.5 -23.5t34 -23.5t44 -18.5t54.5 -7.5q51 0 82.5 23t31.5 67q0 42 -25.5 64t-82.5 22h-62l35 147h84q56 0 83.5 24.5t27.5 61.5q0 42 -22.5 61t-72.5 19q-43 0 -76.5 -13.5t-58.5 -27.5h-78l35 154q37 21 97 38
t129 17q60 0 110 -12.5t86.5 -38.5t57 -66t20.5 -96q0 -84 -51 -132t-142 -67v-4q59 -14 97.5 -55t38.5 -109q0 -56 -25.5 -99.5t-70.5 -73.5t-106 -46t-132 -16zM1409 1493h223l-1288 -1563h-223zM1157 162h-358l41 174l463 452h217l-111 -477h82l-35 -149h-82l-37 -162
h-217zM1194 311l57 244h-6l-246 -240v-4h195z" />
    <glyph glyph-name="brokenbar" unicode="&#xa6;" horiz-adv-x="510" 
d="M184 631h236v-731h-236v731zM184 1518h236v-713h-236v713z" />
    <glyph glyph-name="minus" unicode="&#x2212;" 
d="M195 825h976l-55 -235h-977z" />
    <glyph glyph-name="multiply" unicode="&#xd7;" 
d="M147 397l355 303l-236 304l183 147l229 -299l350 299l129 -160l-352 -303l233 -303l-178 -147l-231 299l-348 -299z" />
    <glyph glyph-name="space" unicode=" " horiz-adv-x="614" 
 />
    <glyph glyph-name="exclam" unicode="!" horiz-adv-x="541" 
d="M279 1257l40 177h320l-41 -177l-268 -835h-189zM172 -12q-35 0 -64.5 12.5t-50.5 34t-33 50.5t-12 62q0 36 14.5 67.5t39 54t57 35.5t67.5 13q36 0 66 -13t51.5 -34.5t33 -50.5t11.5 -61q0 -37 -15 -68.5t-40 -54t-57.5 -35t-67.5 -12.5z" />
    <glyph glyph-name="quotedbl" unicode="&#x22;" horiz-adv-x="756" 
d="M229 1284l35 150h279l-35 -150l-125 -309h-176zM600 1284l35 150h278l-34 -150l-125 -309h-176z" />
    <glyph glyph-name="numbersign" unicode="#" 
d="M264 410h-153l51 223h166l57 217h-158l54 223h165l97 361h202l-96 -361h207l96 361h203l-96 -361h160l-54 -223h-168l-57 -217h160l-51 -223h-172l-111 -410h-203l111 410h-207l-111 -410h-202zM737 633l58 217h-207l-58 -217h207z" />
    <glyph glyph-name="dollar" unicode="$" 
d="M381 -2q-56 9 -103 24.5t-86.5 35t-71.5 41.5t-57 44l48 207h106q37 -49 88 -86.5t125 -54.5l96 418q-68 27 -122.5 62.5t-92.5 81.5t-59 104t-21 131q0 103 38 185.5t105.5 139.5t160.5 87.5t204 31.5l27 115h182l-30 -133q77 -16 142 -45.5t118 -71.5l-45 -193h-105
q-35 37 -73.5 63t-86.5 40l-92 -400q66 -27 124 -60t101.5 -78t69 -104.5t25.5 -140.5q0 -107 -38.5 -191.5t-109 -143t-169.5 -90t-220 -33.5l-43 -193h-182zM809 412q0 53 -28.5 85.5t-88.5 61.5l-82 -356q41 7 77 22t63 40t43 61.5t16 85.5zM498 1044q0 -52 26 -85
t86 -64l80 344q-37 -5 -71.5 -19t-61.5 -38t-43 -58.5t-16 -79.5z" />
    <glyph glyph-name="percent" unicode="%" horiz-adv-x="1638" 
d="M449 852q45 -1 77.5 29.5t53.5 75.5t31 96.5t10 93.5q0 26 -5 50.5t-17.5 43t-32.5 30t-50 11.5q-46 0 -79 -31t-54 -77t-31 -97.5t-10 -93.5q0 -26 5 -49.5t17.5 -41.5t33 -28.5t51.5 -11.5zM430 684q-71 0 -129 22.5t-100 62.5t-65 96t-23 124q0 91 31 174t86.5 147
t132.5 102t169 38q71 0 129.5 -22t100.5 -62t65 -97.5t23 -127.5q0 -89 -31.5 -171t-87 -146t-133 -102t-168.5 -38zM1391 1493h223l-1288 -1563h-224zM1208 152q45 0 77.5 30.5t53.5 75.5t31 96t10 92q0 26 -5 50.5t-17 43.5t-32 30.5t-50 11.5t-55 -14.5t-44 -38.5
t-33.5 -55t-23.5 -64.5t-13.5 -66.5t-4.5 -60q0 -26 5 -50t17 -42t32.5 -28.5t51.5 -10.5zM1190 -16q-71 0 -129.5 22t-100.5 61.5t-65 95.5t-23 124q0 90 31 174t87 148t133 102.5t169 38.5q71 0 129 -22t99.5 -62.5t64.5 -97.5t23 -128q0 -88 -31 -170.5t-86.5 -146
t-132.5 -101.5t-168 -38z" />
    <glyph glyph-name="ampersand" unicode="&#x26;" horiz-adv-x="1393" 
d="M496 -18q-92 0 -178.5 22.5t-153 71t-106.5 124.5t-40 183q0 78 28.5 147t79.5 126.5t121 101.5t152 71q-15 41 -23.5 81t-8.5 89q0 94 35 176.5t101 143.5t162 96t218 35q102 0 178.5 -19.5t144.5 -64.5l-45 -229h-110q-34 37 -76.5 58.5t-104.5 21.5q-44 0 -80.5 -14
t-63 -40t-41.5 -63t-15 -84q0 -23 4 -44.5t13 -44.5t24.5 -49t38.5 -57l225 -309q20 36 41 77t40 84t33.5 87.5t22.5 87.5h250v-66q-19 -68 -46.5 -132t-59.5 -123.5t-67 -113.5t-69 -100l164 -231l6 -82h-309l-80 111q-43 -30 -86.5 -54t-92 -40.5t-104 -25.5t-122.5 -9z
M565 207q74 0 125 22t86 50l-287 391q-68 -39 -108.5 -101t-40.5 -157q0 -49 16.5 -87t46.5 -64.5t71.5 -40t90.5 -13.5z" />
    <glyph glyph-name="quotesingle" unicode="'" horiz-adv-x="385" 
d="M229 1284l35 150h279l-35 -150l-123 -309h-176z" />
    <glyph glyph-name="parenleft" unicode="(" horiz-adv-x="690" 
d="M440 -100q-70 27 -133.5 78t-112 127.5t-77.5 180t-29 236.5q0 112 21.5 221.5t63 211t102.5 191.5t139.5 163.5t174.5 127t208 81.5h82l-50 -205q-103 -38 -188 -114t-146 -181t-94.5 -233t-33.5 -269q0 -98 15 -169.5t40.5 -121.5t58.5 -81t68 -48l-45 -196h-64v0z" />
    <glyph glyph-name="parenright" unicode=")" horiz-adv-x="690" 
d="M-51 104q103 38 188 114t146 181t95 233t34 269q0 98 -15 169.5t-40.5 121.5t-58.5 81t-69 48l45 197h64q70 -28 133.5 -79t112 -127.5t77.5 -180t29 -236.5q0 -111 -21.5 -220.5t-63 -211t-102.5 -192t-139.5 -164t-174.5 -127t-207 -80.5h-82z" />
    <glyph glyph-name="asterisk" unicode="*" horiz-adv-x="782" 
d="M514 836l-20 157l-99 -157l-71 -70l-148 160l74 67l147 76l-145 18l-84 37l108 205l84 -37l111 -106l-14 153l22 95h232l-27 -111l-80 -152l148 78l92 19l26 -219l-96 -19l-151 17l106 -107l37 -80l-213 -106z" />
    <glyph glyph-name="plus" unicode="+" 
d="M504 590h-365l56 235h364l88 385h250l-88 -385h362l-55 -235h-362l-88 -385h-250z" />
    <glyph glyph-name="comma" unicode="," horiz-adv-x="614" 
d="M-6 -94q34 3 62 11t48 20t31.5 26.5t11.5 30.5q0 19 -11.5 26.5t-33.5 22.5q-24 17 -37.5 42.5t-13.5 59.5q0 39 14 70.5t37.5 54t54.5 35t66 12.5q34 0 65 -12t53.5 -34.5t36 -53.5t13.5 -70q0 -87 -31 -154.5t-87 -114.5t-134.5 -73t-173.5 -30z" />
    <glyph glyph-name="hyphen" unicode="-" horiz-adv-x="580" 
d="M100 731h473l-57 -244h-473z" />
    <glyph glyph-name="period" unicode="." horiz-adv-x="614" 
d="M215 -12q-35 0 -64.5 12.5t-50.5 34t-33 50.5t-12 62q0 36 14.5 67.5t39 54t57 35.5t67.5 13q36 0 66 -13t51.5 -34.5t33 -50.5t11.5 -61q0 -37 -15 -68.5t-40 -54t-57.5 -35t-67.5 -12.5z" />
    <glyph glyph-name="slash" unicode="/" horiz-adv-x="721" 
d="M-109 -39l799 1557h223v-62l-800 -1556h-222v61z" />
    <glyph glyph-name="zero" unicode="0" 
d="M553 -16q-127 0 -215.5 39t-144.5 105.5t-81.5 156.5t-25.5 192q0 103 17 215.5t52.5 220.5t89.5 205.5t128 171t168.5 117t210.5 43.5q120 0 208.5 -35.5t146 -102.5t85.5 -164t27 -220q0 -96 -17 -203.5t-51 -212.5t-87.5 -200.5t-127 -168.5t-169 -116t-214.5 -43z
M391 465q1 -63 9 -111.5t27.5 -81.5t51.5 -50t80 -17q56 0 103.5 37t86 97.5t68 138t49.5 158.5t30.5 158t10.5 138q0 68 -7.5 122.5t-26 92.5t-50.5 58t-80 20q-56 0 -104.5 -38t-88 -100.5t-69.5 -142.5t-50.5 -164.5t-30.5 -166.5t-9 -148z" />
    <glyph glyph-name="one" unicode="1" 
d="M649 1090l-274 -138h-82l51 222l492 260h213l-330 -1434h-320z" />
    <glyph glyph-name="two" unicode="2" 
d="M47 252l496 377q61 46 119.5 97t104.5 105t74.5 111.5t28.5 116.5q0 77 -46 115t-146 38q-45 0 -87 -8t-81.5 -21.5t-75.5 -31t-67 -35.5h-101l53 232q85 48 189 75t223 27q97 0 181 -22t146 -68t98 -118.5t36 -172.5q0 -87 -32 -162t-91 -144.5t-141.5 -138
t-184.5 -141.5l-323 -233h616l-57 -250h-989z" />
    <glyph glyph-name="three" unicode="3" 
d="M504 -16q-152 0 -265 42t-188 111l49 211h115q45 -63 119.5 -98t159.5 -37q57 -1 105 12.5t83.5 40t55.5 66t20 90.5q0 41 -11 77t-37.5 62.5t-71 41.5t-110.5 15h-96l51 224h123q55 0 103 12t84 38t56.5 66.5t20.5 96.5q0 47 -15.5 79t-41 52t-59 29t-68.5 10
q-42 1 -81 -6t-74 -18.5t-65 -26.5t-54 -31h-117l49 215q37 21 78 38t88.5 29.5t102 19.5t118.5 7q78 0 156 -17.5t139.5 -60t100 -114t38.5 -179.5q0 -73 -23.5 -132.5t-65.5 -105t-100 -76.5t-128 -46v-8q49 -13 89 -40t68.5 -65t44 -86.5t15.5 -105.5q0 -102 -44 -182.5
t-120 -136t-178 -84.5t-219 -29z" />
    <glyph glyph-name="four" unicode="4" 
d="M651 303h-610l61 266l820 865h303l-209 -908h151l-51 -223h-151l-70 -303h-313zM702 526l119 516h-8l-475 -507v-9h364z" />
    <glyph glyph-name="five" unicode="5" 
d="M485 -16q-81 0 -148 10t-121 28t-97.5 43t-77.5 56l49 209h121q45 -60 110 -89.5t158 -29.5q61 0 117.5 20t100 58.5t69 93.5t25.5 125q0 45 -14.5 79.5t-39.5 58t-59.5 35t-73.5 11.5q-42 0 -76.5 -8.5t-63 -22t-50.5 -30.5t-39 -35h-182l192 838h846l-57 -250h-617
l-78 -334h6q38 28 95.5 49t142.5 21q84 0 155.5 -26t123.5 -76t81 -123.5t29 -168.5q0 -129 -50 -230t-136 -170t-200 -105.5t-241 -36.5z" />
    <glyph glyph-name="six" unicode="6" 
d="M592 -16q-114 0 -208 33.5t-160.5 98t-103 159.5t-36.5 219q0 75 10 153.5t30.5 155.5t52 150.5t73.5 138.5q52 80 119.5 145.5t149.5 112.5t178.5 72.5t207.5 25.5q61 0 112 -6t95.5 -17.5t82 -29t71.5 -41.5l-52 -211h-116q-34 37 -86 58.5t-117 21.5q-68 0 -123.5 -16
t-101 -45t-82 -70t-66.5 -91q-29 -48 -50.5 -102t-35.5 -113q66 54 151 87.5t187 33.5q83 0 154.5 -24.5t124.5 -74.5t83.5 -125t30.5 -175q0 -106 -40.5 -201t-115 -167t-181 -114t-238.5 -42zM657 696q-35 0 -70 -6.5t-67.5 -17.5t-61.5 -25t-52 -29q-5 -38 -7 -77t-2 -74
q0 -59 9.5 -109.5t33 -87.5t63.5 -58.5t101 -21.5q59 0 107 22.5t81.5 64t51.5 99t18 126.5q0 89 -50 141.5t-155 52.5z" />
    <glyph glyph-name="seven" unicode="7" 
d="M217 125l780 1051v8h-721l58 250h969l-64 -273l-707 -1161h-315v125z" />
    <glyph glyph-name="eight" unicode="8" 
d="M555 -18q-51 0 -108.5 7t-114 24t-108 45t-91 71.5t-63 103t-23.5 138.5q0 87 28.5 154t78 116.5t115.5 81.5t141 49v8q-76 37 -119 103t-43 143q0 102 41 181t110.5 133t162.5 82t198 28q103 0 185.5 -25.5t141 -73t90 -115.5t31.5 -153q0 -71 -22 -126.5t-60.5 -96
t-90 -67t-111.5 -41.5v-9q94 -40 150 -115.5t56 -187.5q0 -110 -42.5 -195t-119 -143.5t-182 -89t-231.5 -30.5zM565 190q64 0 112 20.5t80 56t48 83t16 101.5q0 44 -11.5 82.5t-36 67t-64 45t-95.5 16.5q-62 0 -110 -21.5t-81 -58t-50 -86.5t-17 -107q0 -48 16.5 -85.5
t45 -62.5t66.5 -38t81 -13zM711 862q43 0 79 13.5t62.5 39.5t41.5 64.5t15 89.5q0 75 -40 120.5t-121 45.5q-44 0 -80.5 -14t-63 -41t-41 -67t-14.5 -91q0 -41 13 -71t35 -50t51.5 -29.5t62.5 -9.5z" />
    <glyph glyph-name="nine" unicode="9" 
d="M401 -18q-65 0 -118 6t-97.5 18t-82.5 29t-72 39l49 207h117q37 -36 88.5 -55t124.5 -19q109 0 198 39t146 108q46 56 78 126.5t51 152.5q-66 -53 -151.5 -82t-194.5 -29q-89 0 -161.5 24.5t-124 72t-80 116t-28.5 156.5q0 119 44.5 220.5t122.5 176t185.5 116.5
t233.5 42q111 0 203.5 -33t159 -96.5t104 -156t37.5 -210.5q0 -210 -53.5 -385t-159.5 -311q-103 -130 -258 -201t-361 -71zM651 737q34 0 70 5.5t70.5 14.5t65 21.5t54.5 26.5q5 42 7 84.5t2 87.5q0 53 -10.5 100.5t-34 83.5t-62 57t-94.5 21q-61 0 -112 -22.5t-88 -63.5
t-58 -99.5t-21 -131.5q0 -185 211 -185z" />
    <glyph glyph-name="colon" unicode=":" horiz-adv-x="614" 
d="M211 -12q-35 0 -64.5 12.5t-50.5 34t-33 50.5t-12 62q0 36 14.5 67.5t39 54t57 35.5t67.5 13q36 0 66 -13t51.5 -34.5t33 -50.5t11.5 -61q0 -37 -15 -68.5t-40 -54t-57.5 -35t-67.5 -12.5zM346 582q-35 0 -64.5 12.5t-50.5 34t-33 50.5t-12 62q0 36 14.5 67.5t39.5 54
t57 35.5t68 13t65.5 -13t51 -34.5t33 -50.5t11.5 -61q0 -37 -15 -68.5t-40 -54t-57.5 -35t-67.5 -12.5z" />
    <glyph glyph-name="semicolon" unicode=";" horiz-adv-x="614" 
d="M-8 -94q34 3 62 11t48 20t31.5 26.5t11.5 30.5q0 19 -11.5 26.5t-33.5 22.5q-24 17 -37.5 42.5t-13.5 59.5q0 39 14 70.5t38 54t55.5 35t66.5 12.5q34 0 64.5 -12t53 -34.5t35.5 -53.5t13 -70q0 -87 -31 -154.5t-87 -114.5t-134.5 -73t-173.5 -30zM346 582
q-35 0 -64.5 12.5t-50.5 34t-33 50.5t-12 62q0 36 14.5 67.5t39.5 54t57 35.5t68 13t65.5 -13t51 -34.5t33 -50.5t11.5 -61q0 -37 -15 -68.5t-40 -54t-57.5 -35t-67.5 -12.5z" />
    <glyph glyph-name="less" unicode="&#x3c;" 
d="M213 582l45 198l840 389h69l-55 -233l-580 -266v-6l455 -271l-49 -213h-70z" />
    <glyph glyph-name="equal" unicode="=" 
d="M162 547h915l-55 -236h-916zM260 977h916l-54 -236h-915z" />
    <glyph glyph-name="greater" unicode="&#x3e;" 
d="M180 414l580 266v6l-453 270l49 213h70l655 -401l-45 -199l-839 -389h-70z" />
    <glyph glyph-name="question" unicode="?" horiz-adv-x="920" 
d="M225 422q6 64 16.5 115.5t34 98t63.5 91t105 92.5q36 27 77 55t75.5 61t57 72.5t22.5 88.5q0 64 -43 93.5t-109 29.5q-68 0 -123 -20.5t-100 -51.5h-117l52 223q63 37 148 59.5t194 22.5q80 0 154.5 -17t132 -56t92 -103.5t34.5 -159.5q0 -65 -22 -122.5t-61 -108
t-92.5 -95t-117.5 -81.5q-55 -32 -99.5 -61t-77 -61.5t-53.5 -72t-30 -92.5h-213zM276 -12q-35 0 -64.5 12.5t-50.5 34t-32.5 50.5t-11.5 62q0 36 14.5 67.5t39 54t57 35.5t67.5 13q36 0 66 -13t51 -34.5t33 -50.5t12 -61q0 -37 -15 -68.5t-40 -54t-57.5 -35t-68.5 -12.5z
" />
    <glyph glyph-name="at" unicode="@" horiz-adv-x="1776" 
d="M889 -274q-107 0 -210.5 18.5t-197 57t-172 99t-136 144t-90 191t-32.5 241.5q0 142 38.5 263t105 219.5t156 174.5t191.5 127.5t211 78t216 26.5q162 0 304.5 -43.5t248.5 -128.5t167.5 -210t61.5 -288q0 -144 -41.5 -249.5t-110.5 -174.5t-159 -103t-187 -34
q-62 0 -108 9t-78.5 26t-52.5 41t-31 53q-21 -25 -48 -48.5t-59.5 -41.5t-72 -28.5t-86.5 -10.5q-59 0 -106.5 18.5t-81 55t-52 91.5t-18.5 128q0 60 14 121.5t40.5 118t66 106.5t90.5 86.5t113 58t135 21.5q40 0 70.5 -6t55.5 -17t44.5 -26t37.5 -33q28 34 61.5 52t86.5 18
h94l-113 -498q-5 -24 -6 -45.5t5.5 -37.5t21.5 -25t41 -9q48 0 89 23t70 70t45.5 119.5t16.5 170.5q0 116 -39 207t-112.5 153.5t-179 95t-238.5 32.5q-86 0 -170 -19.5t-161 -59t-142.5 -98.5t-113.5 -137.5t-75.5 -176.5t-27.5 -216q0 -156 46 -264.5t127.5 -176
t193.5 -98t243 -30.5q153 0 281 34.5t243 102.5h72l-43 -190q-105 -62 -240.5 -95.5t-312.5 -33.5zM809 322q43 0 87 20.5t79 58.5l78 334q-17 6 -38 11.5t-61 5.5q-52 0 -94.5 -26.5t-73 -71.5t-47 -103.5t-16.5 -122.5q0 -54 23 -80t63 -26z" />
    <glyph glyph-name="A" unicode="A" horiz-adv-x="1362" 
d="M-70 84l762 1350h342l178 -1350v-84h-313l-41 379h-477l-199 -379h-252v84zM496 598h338l-56 528h-4z" />
    <glyph glyph-name="B" unicode="B" horiz-adv-x="1245" 
d="M338 1434h422q111 0 198.5 -22.5t148.5 -67t93.5 -110t32.5 -151.5q0 -72 -22.5 -128.5t-63 -98.5t-97 -70.5t-124.5 -44.5v-8q107 -23 170 -92.5t63 -191.5q0 -118 -48 -203t-130.5 -139.5t-192 -80.5t-231.5 -26h-236h-313zM578 225q58 0 106.5 14t83.5 43t54.5 74
t19.5 107q0 81 -49 129.5t-148 48.5h-176l-96 -416h205zM674 852q51 0 96.5 10t80 33.5t55 63t20.5 98.5q0 69 -45.5 110t-141.5 41h-139l-80 -356h154z" />
    <glyph glyph-name="C" unicode="C" horiz-adv-x="1264" 
d="M715 -16q-137 0 -251.5 34.5t-197 105.5t-128.5 179.5t-46 257.5q0 111 24 220t71.5 207.5t117 183t161 146.5t203.5 97t244 35q128 0 225 -25.5t173 -76.5l-49 -213h-113q-45 40 -105.5 62t-144.5 22q-89 0 -159 -30.5t-123.5 -82t-91.5 -119t-61.5 -141t-34.5 -148.5
t-11 -141q0 -92 21.5 -158t61.5 -108t98 -62t132 -20q87 0 156 25t129 67h121l-54 -231q-31 -18 -68.5 -33.5t-82.5 -27t-99 -18.5t-118 -7z" />
    <glyph glyph-name="D" unicode="D" horiz-adv-x="1417" 
d="M588 225q94 0 166.5 28t126 76t90 111t59 132t32 140t9.5 136q0 73 -14.5 138t-49 113.5t-92 76.5t-143.5 28h-168l-225 -979h209zM338 1434h440q146 0 261 -38.5t195 -113t122.5 -184t42.5 -250.5q0 -106 -22 -210.5t-66.5 -198.5t-111.5 -174.5t-156 -139.5t-200 -92
t-245 -33h-275h-315z" />
    <glyph glyph-name="E" unicode="E" horiz-adv-x="1153" 
d="M338 1434h913l-53 -232h-594l-84 -364h438l-51 -220h-438l-90 -393h641l-51 -225h-642h-319z" />
    <glyph glyph-name="F" unicode="F" horiz-adv-x="1116" 
d="M338 1434h932l-53 -232h-613l-92 -395h483l-49 -219h-483l-135 -588h-320z" />
    <glyph glyph-name="G" unicode="G" horiz-adv-x="1368" 
d="M721 -16q-133 0 -248 32t-199.5 100.5t-133 175t-48.5 255.5q0 113 24 224.5t71 211.5t117 185.5t162 148t205.5 98t248.5 35.5q128 0 232 -25.5t189 -81.5l-51 -219h-108q-53 48 -119.5 71.5t-163.5 23.5q-88 0 -157.5 -30t-123 -81.5t-92 -119t-63 -143t-36 -154.5
t-11.5 -152q0 -79 17.5 -141.5t56 -105.5t99 -66t146.5 -23q82 0 139 18l74 320h-198l47 207h197h315l-154 -670q-32 -19 -77.5 -36t-101 -30t-120 -20.5t-135.5 -7.5z" />
    <glyph glyph-name="H" unicode="H" horiz-adv-x="1419" 
d="M338 1434h319l-135 -590h527l135 590h319l-329 -1434h-320l143 618h-528l-141 -618h-320z" />
    <glyph glyph-name="I" unicode="I" horiz-adv-x="588" 
d="M344 1434h322l-330 -1434h-322z" />
    <glyph glyph-name="J" unicode="J" horiz-adv-x="936" 
d="M289 -16q-65 0 -117.5 8t-95.5 21.5t-76 30t-57 34.5l49 213h104q12 -15 28.5 -29t39 -25t50 -17.5t60.5 -6.5q85 0 128.5 43t62.5 125l242 1053h321l-254 -1100q-18 -78 -55.5 -142.5t-97 -110.5t-142 -71.5t-190.5 -25.5z" />
    <glyph glyph-name="K" unicode="K" horiz-adv-x="1337" 
d="M338 1434h319l-151 -660l651 660h270v-86l-532 -519l301 -743v-86h-299l-244 614l-235 -225l-90 -389h-320z" />
    <glyph glyph-name="L" unicode="L" horiz-adv-x="1094" 
d="M338 1434h319l-278 -1209h577l-51 -225h-578h-319z" />
    <glyph glyph-name="M" unicode="M" horiz-adv-x="1710" 
d="M338 1434h416l80 -953h6l514 953h440l-330 -1434h-315l250 1085h-6l-592 -1085h-193l-86 1085h-6l-250 -1085h-258z" />
    <glyph glyph-name="N" unicode="N" horiz-adv-x="1405" 
d="M338 1434h362l301 -918h7l213 918h268l-330 -1434h-291l-348 1042h-6l-240 -1042h-266z" />
    <glyph glyph-name="O" unicode="O" horiz-adv-x="1495" 
d="M717 205q76 0 138 29.5t110 79t83 115t58 137t34 145t11 139.5q0 71 -14 139t-48.5 121.5t-91.5 86t-143 32.5q-77 0 -139.5 -30.5t-111 -81t-83.5 -116.5t-57.5 -138t-33.5 -145t-11 -136q0 -79 16 -148t52 -120t93 -80t138 -29zM707 -16q-142 0 -256 44t-193.5 123.5
t-122.5 191.5t-43 247q0 111 24 218.5t70.5 203t113 176t152 139t188 91t220.5 32.5q141 0 255.5 -44.5t194.5 -124.5t123.5 -191.5t43.5 -245.5q0 -106 -23 -211.5t-67.5 -201t-110 -177.5t-151 -142t-190.5 -94t-228 -34z" />
    <glyph glyph-name="P" unicode="P" horiz-adv-x="1221" 
d="M338 1434h424q249 0 374.5 -103.5t125.5 -302.5q0 -130 -44 -226t-126.5 -159t-200.5 -94t-266 -31h-179l-118 -518h-320zM641 733q75 0 133.5 17t98.5 54t60.5 95t20.5 139q0 39 -11 69.5t-36 52t-66 33t-102 11.5h-135l-108 -471h145z" />
    <glyph glyph-name="Q" unicode="Q" horiz-adv-x="1495" 
d="M631 -55q-134 43 -235 102t-168.5 138t-101.5 179t-34 226q0 111 24 218.5t70.5 203t113 176t152 139t188 91t220.5 32.5q141 0 255.5 -44.5t194.5 -124.5t123.5 -191.5t43.5 -245.5q0 -138 -32 -261t-95 -223.5t-157 -174.5t-218 -113v-6l422 -72l-56 -242h-122z
M721 203q77 0 138.5 29.5t109.5 79.5t82.5 115.5t56.5 137.5t32.5 145.5t10.5 139.5q0 71 -14 139t-48.5 121.5t-91.5 86t-143 32.5q-77 0 -139.5 -30.5t-111 -81t-83.5 -116.5t-57.5 -138t-33.5 -145t-11 -136q0 -79 15 -148t50.5 -120.5t93.5 -81t144 -29.5z" />
    <glyph glyph-name="R" unicode="R" horiz-adv-x="1286" 
d="M629 561h-172l-129 -561h-320l330 1434h434q252 0 375 -107t123 -305q0 -79 -25 -146t-70.5 -121t-109.5 -94t-141 -65l215 -512v-84h-289zM670 776q142 0 217.5 64.5t75.5 197.5q0 38 -10.5 68.5t-35.5 52.5t-66 33.5t-101 11.5h-146l-98 -428h164z" />
    <glyph glyph-name="S" unicode="S" horiz-adv-x="1085" 
d="M455 -16q-87 0 -159 12.5t-130.5 34t-103.5 49t-78 57.5l49 219h106q25 -32 56 -58.5t71 -45.5t89.5 -30t111.5 -11q46 0 90.5 10t79.5 33t56.5 61.5t21.5 94.5q0 40 -16 67t-47.5 48.5t-77.5 40.5t-105 42q-72 28 -129 63t-96 81t-59.5 105t-20.5 134q0 109 37 194.5
t105 144t163.5 89.5t212.5 31q136 0 242 -37t186 -100l-49 -207h-105q-29 28 -59.5 49.5t-65.5 36.5t-76 23t-91 8q-42 0 -80.5 -10t-68.5 -32t-48 -55.5t-18 -81.5q0 -38 12.5 -64.5t40 -47.5t73 -41t111.5 -45q72 -28 132.5 -60.5t104 -77.5t67.5 -105.5t24 -143.5
q0 -116 -40 -204.5t-113 -148.5t-176 -91t-230 -31z" />
    <glyph glyph-name="T" unicode="T" horiz-adv-x="1169" 
d="M582 1208h-383l51 226h1085l-51 -226h-383l-278 -1208h-320z" />
    <glyph glyph-name="U" unicode="U" horiz-adv-x="1364" 
d="M635 -16q-143 0 -252 40t-176.5 116t-89 187t11.5 253l197 854h319l-207 -893q-15 -66 -13 -124.5t27 -102.5t76 -69.5t134 -25.5q65 0 116 17t89.5 53t66 92.5t45.5 136.5l211 916h266l-215 -934q-27 -115 -73.5 -210t-119 -163t-174.5 -105.5t-239 -37.5z" />
    <glyph glyph-name="V" unicode="V" horiz-adv-x="1307" 
d="M231 1350v84h306l94 -1065h4l573 1065h250v-84l-756 -1350h-327z" />
    <glyph glyph-name="W" unicode="W" horiz-adv-x="1878" 
d="M238 1350v84h299l8 -1041h4l473 1041h270l6 -1041h5l454 1041h264v-84l-632 -1350h-355l8 938h-4l-415 -938h-357z" />
    <glyph glyph-name="X" unicode="X" horiz-adv-x="1331" 
d="M-31 90l539 658l-244 595v91h303l193 -508l385 508h258v-91l-496 -618l258 -635v-90h-303l-209 549l-426 -549h-258v90z" />
    <glyph glyph-name="Y" unicode="Y" horiz-adv-x="1212" 
d="M473 575l-254 768v91h297l180 -594h4l430 594h244v-91l-590 -798l-125 -545h-319z" />
    <glyph glyph-name="Z" unicode="Z" horiz-adv-x="1143" 
d="M-8 242l870 956v8h-596l53 228h967l-57 -248l-873 -957v-8h650l-50 -221h-1019z" />
    <glyph glyph-name="bracketleft" unicode="[" horiz-adv-x="692" 
d="M375 1518h485l-47 -197h-207l-282 -1225h206l-45 -196h-206h-279z" />
    <glyph glyph-name="backslash" unicode="\" horiz-adv-x="721" 
d="M197 1456v62h227l186 -1557v-61h-227z" />
    <glyph glyph-name="bracketright" unicode="]" horiz-adv-x="692" 
d="M-35 96h207l283 1225h-207l47 197h485l-374 -1618h-280h-206z" />
    <glyph glyph-name="asciicircum" unicode="^" horiz-adv-x="862" 
d="M139 995l379 439h215l195 -439v-69h-221l-121 264h-6l-228 -264h-213v69z" />
    <glyph glyph-name="underscore" unicode="_" horiz-adv-x="764" 
d="M-154 -141h770l-45 -191h-770z" />
    <glyph glyph-name="grave" unicode="`" horiz-adv-x="819" 
d="M301 1348v86h283l78 -220v-63h-181z" />
    <glyph glyph-name="a" unicode="a" horiz-adv-x="1042" 
d="M719 0q-50 0 -90.5 24.5t-57.5 77.5q-49 -51 -117.5 -82.5t-156.5 -31.5q-64 0 -117.5 18.5t-92 55t-60 90t-21.5 124.5q0 88 33 157t94 116.5t147.5 72.5t192.5 25q69 0 111.5 -6.5t74.5 -17.5l9 39q24 106 -9 160.5t-133 54.5q-81 0 -144 -17t-120 -49h-86l49 213
q35 15 72.5 27.5t80.5 21.5t92 14t108 5q113 0 197 -27t134.5 -83t64.5 -143.5t-13 -207.5l-146 -631h-96zM406 174q54 0 93 22.5t76 57.5l46 205q-25 6 -56 11t-73 5q-102 0 -153.5 -50t-51.5 -128q0 -59 30 -91t89 -32z" />
    <glyph glyph-name="b" unicode="b" horiz-adv-x="1190" 
d="M319 1434h183q29 0 50 -6t31.5 -24t10.5 -51t-12 -87l-72 -312q60 60 142 99t179 39q61 0 116.5 -22t97.5 -69t67 -120t25 -174q0 -168 -41.5 -302t-116 -227t-177.5 -142.5t-227 -49.5q-54 0 -99.5 11.5t-82 29.5t-64 40.5t-46.5 45.5q-17 -23 -38 -43t-46.5 -36
t-56 -25t-66.5 -9h-84zM705 870q-60 0 -116 -25t-118 -67l-121 -530q11 -12 25 -24t34 -21.5t46.5 -16t62.5 -6.5q81 0 141.5 40.5t100.5 109.5t60 161.5t20 196.5q0 91 -37.5 136.5t-97.5 45.5z" />
    <glyph glyph-name="c" unicode="c" horiz-adv-x="991" 
d="M539 -14q-123 0 -214 31.5t-151 89.5t-89.5 139.5t-29.5 181.5q0 147 50 269.5t137 210t205 136t255 48.5q107 0 183 -23.5t133 -67.5l-45 -192h-109q-23 28 -65 46.5t-105 18.5q-78 0 -141.5 -34t-108.5 -94t-69.5 -141t-24.5 -175q0 -118 53 -174.5t158 -56.5
q71 0 119 17.5t90 45.5h111l-47 -203q-51 -32 -123.5 -52.5t-171.5 -20.5z" />
    <glyph glyph-name="d" unicode="d" horiz-adv-x="1190" 
d="M872 0q-41 0 -71.5 10t-51 27.5t-32.5 41.5t-17 52q-57 -69 -134 -108t-171 -39q-72 0 -135 21.5t-110 68.5t-74 122t-27 183q0 150 43 279.5t119.5 225.5t181 151t228.5 55q92 0 152.5 -28t98.5 -73l103 445h180q29 0 50 -6t31.5 -24t10.5 -51t-12 -87l-289 -1266h-74z
M500 190q48 0 103 23t108 63l118 527q-11 10 -26 21.5t-34.5 20.5t-44.5 15t-56 6q-76 0 -136 -36.5t-101 -100.5t-63 -151t-22 -187q0 -102 35 -151.5t119 -49.5z" />
    <glyph glyph-name="e" unicode="e" horiz-adv-x="1055" 
d="M514 -14q-223 0 -344 111.5t-121 328.5q0 87 17.5 170t51.5 157t83.5 136.5t113 107.5t141 70t167.5 25q97 0 170 -27.5t121.5 -78.5t72.5 -122.5t23 -158.5q0 -54 -9 -113t-26 -121h-635v-41q0 -65 13.5 -109.5t39.5 -72.5t64.5 -40.5t89.5 -12.5q75 0 140 19t124 56h96
l-47 -207q-59 -32 -143.5 -54.5t-202.5 -22.5zM604 901q-45 0 -82.5 -17.5t-67.5 -50.5t-52.5 -79t-36.5 -103h378q5 22 7 42t2 38q0 87 -40 128.5t-108 41.5z" />
    <glyph glyph-name="f" unicode="f" horiz-adv-x="686" 
d="M236 874h-127l43 201h127l18 82q35 154 129.5 225.5t245.5 71.5q65 0 110.5 -8t73.5 -21l-39 -178h-63q-34 0 -60.5 -4t-46.5 -14.5t-33 -30.5t-20 -51l-16 -72h184l-43 -201h-187l-196 -874h-291z" />
    <glyph glyph-name="g" unicode="g" horiz-adv-x="1178" 
d="M375 -352q-78 0 -139.5 8.5t-109.5 22.5t-83.5 31.5t-62.5 35.5l49 207h90q38 -42 101.5 -65t150.5 -23q54 0 100.5 10t84 34t64 63t39.5 98l27 116q-60 -63 -141 -102t-174 -39q-65 0 -123.5 21t-102.5 65t-70 111.5t-26 160.5q0 145 42.5 271t118.5 219t181.5 146
t231.5 53q49 0 92 -11t78.5 -28.5t63.5 -39t48 -42.5q16 21 36.5 39.5t45.5 33t54.5 23t64.5 8.5h84l-234 -1012q-27 -118 -78.5 -197.5t-125 -128t-168.5 -69t-209 -20.5zM479 254q60 0 122 26.5t124 75.5l106 469q-11 12 -25.5 24t-34.5 22.5t-46.5 17t-60.5 6.5
q-82 0 -142 -41.5t-99 -109t-58 -153.5t-19 -175q0 -84 33.5 -123t99.5 -39z" />
    <glyph glyph-name="h" unicode="h" horiz-adv-x="1171" 
d="M319 1434h181q29 0 50 -6t31.5 -24t10.5 -51t-12 -87l-72 -318q40 31 82 57t88.5 45.5t99 30.5t113.5 11q63 0 112.5 -25t80 -72t39 -114.5t-10.5 -151.5l-168 -729h-199q-26 0 -43 6t-25.5 21.5t-8 41t9.5 64.5l133 596q14 65 -5 95t-69 30q-57 0 -124 -23.5t-150 -74.5
l-172 -756h-299z" />
    <glyph glyph-name="i" unicode="i" horiz-adv-x="532" 
d="M240 1075h163q36 0 60 -6.5t35.5 -27t10.5 -59.5t-15 -103l-201 -879h-299zM426 1161q-34 0 -62 12t-48 32.5t-31 48t-11 59.5q0 34 14 64t37.5 51.5t54 34t64.5 12.5t62.5 -12t48.5 -33t31.5 -48.5t11.5 -58.5q0 -35 -14 -65t-38 -51.5t-55 -33.5t-65 -12z" />
    <glyph glyph-name="j" unicode="j" horiz-adv-x="528" 
d="M-63 -344q-35 0 -61 2t-46.5 6t-37.5 9.5t-34 11.5l39 165h37q37 0 63 5t43 18.5t28 37.5t20 62l252 1102h163q36 0 60 -6.5t35.5 -27t10.5 -59.5t-15 -103l-211 -924q-20 -84 -51 -141.5t-74 -92.5t-98.5 -50t-122.5 -15zM426 1161q-34 0 -62 12t-48 32.5t-31 48
t-11 59.5q0 34 14 64t37.5 51.5t54 34t64.5 12.5t62.5 -12t48.5 -33t31.5 -48.5t11.5 -58.5q0 -35 -14 -65t-38 -51.5t-55 -33.5t-65 -12z" />
    <glyph glyph-name="k" unicode="k" horiz-adv-x="1073" 
d="M319 1434h181q29 0 50 -6t31.5 -24t10.5 -51t-12 -87l-138 -598l414 407h260v-78l-407 -374l247 -541v-82h-276l-199 434l-116 -110l-74 -324h-299z" />
    <glyph glyph-name="l" unicode="l" horiz-adv-x="539" 
d="M322 1434h180q29 0 50 -6t31.5 -24t10.5 -51t-12 -87l-289 -1266h-299z" />
    <glyph glyph-name="m" unicode="m" horiz-adv-x="1737" 
d="M238 1075h94q85 0 121.5 -40.5t38.5 -106.5q38 33 79 62.5t85.5 52t93.5 36t104 13.5q85 0 143 -43t78 -123q90 74 185.5 120t201.5 46q64 0 113.5 -25t78.5 -71.5t36 -114t-13 -152.5l-170 -729h-198q-26 0 -43.5 6t-26 21.5t-8 41t9.5 64.5l133 596q14 65 -2.5 95
t-62.5 30q-44 0 -99.5 -22t-134.5 -70l-6 -33l-170 -729h-297l164 729q14 65 -2.5 95t-63.5 30q-43 0 -99.5 -22.5t-133.5 -71.5l-174 -760h-301z" />
    <glyph glyph-name="n" unicode="n" horiz-adv-x="1171" 
d="M238 1075h98q42 0 71 -10t47.5 -28t27 -44t10.5 -57q41 33 84.5 61.5t92.5 49.5t103.5 33t118.5 12q63 0 112.5 -25t80 -72t39 -114.5t-10.5 -151.5l-168 -729h-199q-26 0 -43 6t-25.5 21.5t-8 41t9.5 64.5l133 596q14 65 -5 95t-69 30q-57 0 -124 -23.5t-150 -74.5
l-172 -756h-299z" />
    <glyph glyph-name="o" unicode="o" horiz-adv-x="1165" 
d="M537 195q68 0 120.5 37t88 98.5t53.5 141t18 165.5q0 64 -13.5 110t-37.5 75.5t-58 43t-75 13.5q-66 0 -119 -38t-89.5 -101t-56.5 -143.5t-20 -164.5q0 -65 13.5 -110t38 -73t59.5 -41t78 -13zM526 -12q-112 0 -199.5 31.5t-148 90t-92 141.5t-31.5 187q0 149 47.5 270
t128 206.5t187 131.5t223.5 46q112 0 199.5 -33t147.5 -94t91 -146t31 -188q0 -149 -45 -268.5t-123.5 -202.5t-185 -127.5t-230.5 -44.5z" />
    <glyph glyph-name="p" unicode="p" horiz-adv-x="1180" 
d="M238 1075h98q82 0 118.5 -37t41.5 -100q30 33 66.5 61t78 49t86.5 32.5t92 11.5q65 0 123 -22.5t101.5 -70.5t68.5 -123.5t25 -181.5q0 -164 -41.5 -291t-115 -214t-175 -132t-221.5 -45q-97 0 -160.5 26.5t-104.5 63.5l-98 -434h-303zM705 870q-59 0 -113.5 -22
t-116.5 -66l-117 -512q12 -11 28 -21.5t36 -18.5t46 -13.5t58 -5.5q78 0 137 35.5t98.5 99t59 151t19.5 191.5q0 91 -37.5 136.5t-97.5 45.5z" />
    <glyph glyph-name="q" unicode="q" horiz-adv-x="1190" 
d="M678 133q-59 -59 -137.5 -90t-161.5 -31q-65 0 -124.5 20t-105 64t-73 112.5t-27.5 166.5q0 160 45.5 291.5t125 225.5t185.5 146t228 52q47 0 87.5 -9.5t75 -26t62.5 -38.5t49 -47q17 21 37.5 40.5t45.5 34t55 23t65 8.5h84l-322 -1407h-301zM485 215q112 0 234 100
l115 502q-23 20 -63.5 37.5t-111.5 17.5t-129 -38.5t-99 -103.5t-63 -151.5t-22 -183.5q0 -51 10 -85.5t28 -55.5t43.5 -30t57.5 -9z" />
    <glyph glyph-name="r" unicode="r" horiz-adv-x="795" 
d="M238 1075h94q48 0 80 -13t50.5 -36t25 -56t4.5 -73q30 42 65 76.5t74.5 59t83 38.5t88.5 14q17 0 32 -2.5t29 -7.5l-55 -252h-37q-106 0 -185 -31.5t-130 -74.5l-164 -717h-301z" />
    <glyph glyph-name="s" unicode="s" horiz-adv-x="889" 
d="M336 -12q-71 0 -129 9t-104 23.5t-80.5 33t-59.5 36.5l47 203h96q35 -40 94 -67t144 -27q35 0 66.5 6t55 18.5t37 32.5t13.5 49q0 21 -8.5 37t-25.5 29t-43.5 24.5t-63.5 24.5q-68 24 -120 51t-87 62t-53.5 81.5t-18.5 108.5q0 84 30 151.5t86.5 114t137.5 71.5t182 25
q61 0 112 -8t93.5 -22t77 -32t62.5 -38l-46 -188h-90q-34 31 -90.5 55.5t-130.5 24.5q-78 0 -116.5 -26.5t-38.5 -76.5q0 -18 7.5 -32.5t24.5 -27.5t45 -25.5t70 -26.5q61 -22 112.5 -46.5t89 -58.5t58.5 -80t21 -110q0 -88 -32 -158t-91 -119t-143.5 -75.5t-190.5 -26.5z
" />
    <glyph glyph-name="t" unicode="t" horiz-adv-x="711" 
d="M371 -16q-85 0 -144 24t-92 69.5t-40 110.5t11 146l125 540h-116l43 201h118l66 287h299l-66 -287h193l-43 -201h-197l-125 -546q-15 -68 11 -104t110 -36h51l-38 -178q-32 -12 -69.5 -19t-96.5 -7z" />
    <glyph glyph-name="u" unicode="u" horiz-adv-x="1165" 
d="M840 0q-44 0 -75 10.5t-51 29t-30.5 44.5t-13.5 57q-41 -33 -82.5 -61.5t-87 -50t-96.5 -33.5t-109 -12q-70 0 -123 24t-84.5 70t-39.5 113.5t13 154.5l170 729h199q26 0 43.5 -6t26 -21t8 -41t-9.5 -65l-133 -596q-14 -65 5 -96t68 -31q54 0 116 23t136 69l174 764h299
l-245 -1075h-78v0z" />
    <glyph glyph-name="v" unicode="v" horiz-adv-x="1061" 
d="M127 997v78h285l86 -729h4l366 729h246v-78l-545 -997h-299z" />
    <glyph glyph-name="w" unicode="w" horiz-adv-x="1577" 
d="M133 997v78h281l41 -678h4l317 678h230l65 -678h4l301 678h240v-78l-488 -997h-258l-71 670h-4l-314 -670h-266z" />
    <glyph glyph-name="x" unicode="x" horiz-adv-x="1069" 
d="M-51 78l409 485l-184 434v78h285l129 -327l268 327h246v-78l-383 -444l213 -475v-78h-285l-155 367l-297 -367h-246v78z" />
    <glyph glyph-name="y" unicode="y" horiz-adv-x="1061" 
d="M35 -252l248 367l-156 882v78h281l98 -641h4l358 641h246v-78l-807 -1329h-272v80z" />
    <glyph glyph-name="z" unicode="z" horiz-adv-x="971" 
d="M-23 207l646 657h-463l49 211h817l-47 -209l-651 -655h485l-49 -211h-834z" />
    <glyph glyph-name="braceleft" unicode="{" horiz-adv-x="752" 
d="M395 -100q-167 0 -234.5 73.5t-35.5 210.5l78 334q12 51 -7 82t-73 31h-57l47 196h47q62 0 94.5 29.5t44.5 83.5l74 315q15 63 37.5 112t59 82.5t90 51t128.5 17.5h232l-48 -197h-151q-29 0 -45.5 -16.5t-24.5 -47.5l-71 -315q-10 -42 -27.5 -77t-45 -63t-68 -48
t-95.5 -31v-6q48 -14 78 -36.5t45 -52.5t15.5 -67.5t-9.5 -81.5l-74 -319q-8 -31 2.5 -47.5t42.5 -16.5h146l-45 -196h-150v0z" />
    <glyph glyph-name="bar" unicode="|" horiz-adv-x="512" 
d="M186 1518h236l-2 -1618h-236z" />
    <glyph glyph-name="braceright" unicode="}" horiz-adv-x="752" 
d="M-33 96h152q29 0 45 16.5t24 47.5l76 336q10 41 27.5 76.5t45 63.5t67.5 48t96 31v6q-48 14 -78 36.5t-45 52.5t-15.5 67t9.5 81l69 299q17 64 -45 64h-145l45 197h149q168 0 235.5 -74t35.5 -211l-74 -313q-12 -51 7 -82t73 -31h57l-47 -197h-47q-62 0 -94.5 -29
t-44.5 -83l-78 -336q-15 -63 -37.5 -112t-59.5 -82t-90 -50.5t-128 -17.5h-232z" />
    <glyph glyph-name="asciitilde" unicode="~" horiz-adv-x="807" 
d="M49 532q13 48 35.5 88t54 69t72 45t88.5 16q41 0 77.5 -9t68 -19.5l57 -19t43.5 -8.5q31 0 49 15t31 47h166v-92q-26 -99 -89.5 -158.5t-160.5 -59.5q-36 0 -72.5 8.5t-68.5 19t-59.5 19.5t-45.5 9q-31 0 -49.5 -15t-30.5 -47h-166v92z" />
    <glyph glyph-name="Adieresis" unicode="&#xc4;" horiz-adv-x="1362" 
d="M-70 84l762 1350h342l178 -1350v-84h-313l-41 379h-477l-199 -379h-252v84zM496 598h338l-56 528h-4zM676 1478q-32 0 -58.5 11.5t-45.5 31.5t-29 46.5t-10 56.5q0 33 13 61.5t35 49t51.5 32.5t61.5 12t59 -11.5t46.5 -31.5t30 -46.5t10.5 -55.5q0 -34 -13.5 -62.5
t-36 -49.5t-52.5 -32.5t-62 -11.5zM1069 1478q-32 0 -58.5 11.5t-45.5 31.5t-29 46.5t-10 56.5q0 33 13 61.5t35.5 49t52 32.5t61.5 12t59 -11.5t46 -31.5t29.5 -46.5t10.5 -55.5q0 -34 -13.5 -62.5t-36 -49.5t-52.5 -32.5t-62 -11.5z" />
    <glyph glyph-name="Aring" unicode="&#xc5;" horiz-adv-x="1362" 
d="M-70 84l762 1350h342l178 -1350v-84h-313l-41 379h-477l-199 -379h-252v84zM496 598h338l-56 528h-4zM873 1610q35 0 58.5 24t23.5 62q0 34 -20 53t-52 19q-35 0 -56.5 -24t-21.5 -66q0 -31 18 -49.5t50 -18.5zM871 1483q-43 0 -81 13t-66 38t-44 61t-16 81
q0 50 18.5 90.5t49.5 69t71 44t84 15.5q43 0 81 -13.5t66 -39t44 -62t16 -82.5q0 -50 -18.5 -90t-49 -67.5t-71 -42.5t-84.5 -15z" />
    <glyph glyph-name="Ccedilla" unicode="&#xc7;" horiz-adv-x="1264" 
d="M715 -16q-17 0 -34.5 1t-33.5 1l-8 -35q34 -2 59 -12.5t41.5 -28.5t24.5 -41.5t8 -50.5q0 -51 -20 -85t-52.5 -54.5t-74 -28.5t-84.5 -8q-34 0 -59 2.5t-45 8t-35.5 13t-30.5 17.5l26 114h60q8 -12 24 -20t47 -8q26 0 45 8.5t19 29.5q0 17 -14.5 27t-51.5 10h-53l37 160
q-95 22 -172.5 67.5t-132 114.5t-84 162.5t-29.5 212.5q0 111 24 220t71.5 207.5t117 183t161 146.5t203.5 97t244 35q128 0 225 -25.5t173 -76.5l-49 -213h-113q-45 40 -105.5 62t-144.5 22q-89 0 -159 -30.5t-123.5 -82t-91.5 -119t-61.5 -141t-34.5 -148.5t-11 -141
q0 -92 21.5 -158t61.5 -108t98 -62t132 -20q87 0 156 25t129 67h121l-54 -231q-31 -18 -68.5 -33.5t-82.5 -27t-99 -18.5t-118 -7z" />
    <glyph glyph-name="Eacute" unicode="&#xc9;" horiz-adv-x="1153" 
d="M338 1434h913l-53 -232h-594l-84 -364h438l-51 -220h-438l-90 -393h641l-51 -225h-642h-319zM701 1542l96 199h291v-86l-225 -176h-162v63z" />
    <glyph glyph-name="Ntilde" unicode="&#xd1;" horiz-adv-x="1405" 
d="M338 1434h362l301 -918h7l213 918h268l-330 -1434h-291l-348 1042h-6l-240 -1042h-266zM1088 1481q-36 0 -66.5 9t-57 19.5t-48.5 19.5t-41 9q-29 0 -46 -15t-28 -44h-153v78q32 96 87.5 144t137.5 48q36 0 67 -8.5t57.5 -18t49 -18t41.5 -8.5q28 0 43.5 14.5t28.5 40.5
h153v-77q-65 -193 -225 -193z" />
    <glyph glyph-name="Odieresis" unicode="&#xd6;" horiz-adv-x="1495" 
d="M717 205q76 0 138 29.5t110 79t83 115t58 137t34 145t11 139.5q0 71 -14 139t-48.5 121.5t-91.5 86t-143 32.5q-77 0 -139.5 -30.5t-111 -81t-83.5 -116.5t-57.5 -138t-33.5 -145t-11 -136q0 -79 16 -148t52 -120t93 -80t138 -29zM707 -16q-142 0 -256 44t-193.5 123.5
t-122.5 191.5t-43 247q0 111 24 218.5t70.5 203t113 176t152 139t188 91t220.5 32.5q141 0 255.5 -44.5t194.5 -124.5t123.5 -191.5t43.5 -245.5q0 -106 -23 -211.5t-67.5 -201t-110 -177.5t-151 -142t-190.5 -94t-228 -34zM718 1478q-32 0 -58.5 11.5t-45.5 31.5t-29 46.5
t-10 56.5q0 33 13 61.5t35 49t51.5 32.5t61.5 12t59 -11.5t46.5 -31.5t30 -46.5t10.5 -55.5q0 -34 -13.5 -62.5t-36 -49.5t-52.5 -32.5t-62 -11.5zM1111 1478q-32 0 -58.5 11.5t-45.5 31.5t-29 46.5t-10 56.5q0 33 13 61.5t35.5 49t52 32.5t61.5 12t59 -11.5t46 -31.5
t29.5 -46.5t10.5 -55.5q0 -34 -13.5 -62.5t-36 -49.5t-52.5 -32.5t-62 -11.5z" />
    <glyph glyph-name="Udieresis" unicode="&#xdc;" horiz-adv-x="1364" 
d="M635 -16q-143 0 -252 40t-176.5 116t-89 187t11.5 253l197 854h319l-207 -893q-15 -66 -13 -124.5t27 -102.5t76 -69.5t134 -25.5q65 0 116 17t89.5 53t66 92.5t45.5 136.5l211 916h266l-215 -934q-27 -115 -73.5 -210t-119 -163t-174.5 -105.5t-239 -37.5zM730 1478
q-32 0 -58.5 11.5t-45.5 31.5t-29 46.5t-10 56.5q0 33 13 61.5t35 49t51.5 32.5t61.5 12t59 -11.5t46.5 -31.5t30 -46.5t10.5 -55.5q0 -34 -13.5 -62.5t-36 -49.5t-52.5 -32.5t-62 -11.5zM1123 1478q-32 0 -58.5 11.5t-45.5 31.5t-29 46.5t-10 56.5q0 33 13 61.5t35.5 49
t52 32.5t61.5 12t59 -11.5t46 -31.5t29.5 -46.5t10.5 -55.5q0 -34 -13.5 -62.5t-36 -49.5t-52.5 -32.5t-62 -11.5z" />
    <glyph glyph-name="aacute" unicode="&#xe1;" horiz-adv-x="1042" 
d="M719 0q-50 0 -90.5 24.5t-57.5 77.5q-49 -51 -117.5 -82.5t-156.5 -31.5q-64 0 -117.5 18.5t-92 55t-60 90t-21.5 124.5q0 88 33 157t94 116.5t147.5 72.5t192.5 25q69 0 111.5 -6.5t74.5 -17.5l9 39q24 106 -9 160.5t-133 54.5q-81 0 -144 -17t-120 -49h-86l49 213
q35 15 72.5 27.5t80.5 21.5t92 14t108 5q113 0 197 -27t134.5 -83t64.5 -143.5t-13 -207.5l-146 -631h-96zM406 174q54 0 93 22.5t76 57.5l46 205q-25 6 -56 11t-73 5q-102 0 -153.5 -50t-51.5 -128q0 -59 30 -91t89 -32zM530 1214l107 220h290v-86l-235 -197h-162v63z" />
    <glyph glyph-name="agrave" unicode="&#xe0;" horiz-adv-x="1042" 
d="M719 0q-50 0 -90.5 24.5t-57.5 77.5q-49 -51 -117.5 -82.5t-156.5 -31.5q-64 0 -117.5 18.5t-92 55t-60 90t-21.5 124.5q0 88 33 157t94 116.5t147.5 72.5t192.5 25q69 0 111.5 -6.5t74.5 -17.5l9 39q24 106 -9 160.5t-133 54.5q-81 0 -144 -17t-120 -49h-86l49 213
q35 15 72.5 27.5t80.5 21.5t92 14t108 5q113 0 197 -27t134.5 -83t64.5 -143.5t-13 -207.5l-146 -631h-96zM406 174q54 0 93 22.5t76 57.5l46 205q-25 6 -56 11t-73 5q-102 0 -153.5 -50t-51.5 -128q0 -59 30 -91t89 -32zM360 1348v86h283l78 -220v-63h-181z" />
    <glyph glyph-name="acircumflex" unicode="&#xe2;" horiz-adv-x="1042" 
d="M719 0q-50 0 -90.5 24.5t-57.5 77.5q-49 -51 -117.5 -82.5t-156.5 -31.5q-64 0 -117.5 18.5t-92 55t-60 90t-21.5 124.5q0 88 33 157t94 116.5t147.5 72.5t192.5 25q69 0 111.5 -6.5t74.5 -17.5l9 39q24 106 -9 160.5t-133 54.5q-81 0 -144 -17t-120 -49h-86l49 213
q35 15 72.5 27.5t80.5 21.5t92 14t108 5q113 0 197 -27t134.5 -83t64.5 -143.5t-13 -207.5l-146 -631h-96zM406 174q54 0 93 22.5t76 57.5l46 205q-25 6 -56 11t-73 5q-102 0 -153.5 -50t-51.5 -128q0 -59 30 -91t89 -32zM338 1227l217 207h205l147 -207v-76h-168l-104 96
l-146 -96h-151v76z" />
    <glyph glyph-name="adieresis" unicode="&#xe4;" horiz-adv-x="1042" 
d="M719 0q-50 0 -90.5 24.5t-57.5 77.5q-49 -51 -117.5 -82.5t-156.5 -31.5q-64 0 -117.5 18.5t-92 55t-60 90t-21.5 124.5q0 88 33 157t94 116.5t147.5 72.5t192.5 25q69 0 111.5 -6.5t74.5 -17.5l9 39q24 106 -9 160.5t-133 54.5q-81 0 -144 -17t-120 -49h-86l49 213
q35 15 72.5 27.5t80.5 21.5t92 14t108 5q113 0 197 -27t134.5 -83t64.5 -143.5t-13 -207.5l-146 -631h-96zM406 174q54 0 93 22.5t76 57.5l46 205q-25 6 -56 11t-73 5q-102 0 -153.5 -50t-51.5 -128q0 -59 30 -91t89 -32zM444 1159q-32 0 -58.5 11.5t-45.5 31.5t-29 46.5
t-10 56.5q0 33 13 61.5t35 49t51.5 32.5t61.5 12t59 -11.5t46.5 -31.5t30 -46.5t10.5 -55.5q0 -34 -13.5 -62.5t-36 -49.5t-52.5 -32.5t-62 -11.5zM837 1159q-32 0 -58.5 11.5t-45.5 31.5t-29 46.5t-10 56.5q0 33 13 61.5t35.5 49t52 32.5t61.5 12t59 -11.5t46 -31.5
t29.5 -46.5t10.5 -55.5q0 -34 -13.5 -62.5t-36 -49.5t-52.5 -32.5t-62 -11.5z" />
    <glyph glyph-name="atilde" unicode="&#xe3;" horiz-adv-x="1042" 
d="M719 0q-50 0 -90.5 24.5t-57.5 77.5q-49 -51 -117.5 -82.5t-156.5 -31.5q-64 0 -117.5 18.5t-92 55t-60 90t-21.5 124.5q0 88 33 157t94 116.5t147.5 72.5t192.5 25q69 0 111.5 -6.5t74.5 -17.5l9 39q24 106 -9 160.5t-133 54.5q-81 0 -144 -17t-120 -49h-86l49 213
q35 15 72.5 27.5t80.5 21.5t92 14t108 5q113 0 197 -27t134.5 -83t64.5 -143.5t-13 -207.5l-146 -631h-96zM406 174q54 0 93 22.5t76 57.5l46 205q-25 6 -56 11t-73 5q-102 0 -153.5 -50t-51.5 -128q0 -59 30 -91t89 -32zM760 1157q-36 0 -66.5 9t-57 19.5t-48.5 19.5t-41 9
q-29 0 -46 -15t-28 -44h-153v78q32 96 87.5 144t137.5 48q36 0 67 -8.5t57.5 -18t49 -18t41.5 -8.5q28 0 43.5 14.5t28.5 40.5h153v-77q-65 -193 -225 -193z" />
    <glyph glyph-name="aring" unicode="&#xe5;" horiz-adv-x="1042" 
d="M719 0q-50 0 -90.5 24.5t-57.5 77.5q-49 -51 -117.5 -82.5t-156.5 -31.5q-64 0 -117.5 18.5t-92 55t-60 90t-21.5 124.5q0 88 33 157t94 116.5t147.5 72.5t192.5 25q69 0 111.5 -6.5t74.5 -17.5l9 39q24 106 -9 160.5t-133 54.5q-81 0 -144 -17t-120 -49h-86l49 213
q35 15 72.5 27.5t80.5 21.5t92 14t108 5q113 0 197 -27t134.5 -83t64.5 -143.5t-13 -207.5l-146 -631h-96zM406 174q54 0 93 22.5t76 57.5l46 205q-25 6 -56 11t-73 5q-102 0 -153.5 -50t-51.5 -128q0 -59 30 -91t89 -32zM653 1286q35 0 58.5 24t23.5 62q0 34 -20 53t-52 19
q-35 0 -56.5 -24t-21.5 -66q0 -31 18 -49.5t50 -18.5zM651 1159q-43 0 -81 13t-66 38t-44 61t-16 81q0 50 18.5 90.5t49.5 69t71 44t84 15.5q43 0 81 -13.5t66 -39t44 -62t16 -82.5q0 -50 -18.5 -90t-49 -67.5t-71 -42.5t-84.5 -15z" />
    <glyph glyph-name="ccedilla" unicode="&#xe7;" horiz-adv-x="991" 
d="M508 -14l-8 -35q34 -2 59 -12.5t41.5 -28.5t24.5 -41.5t8 -50.5q0 -51 -20 -85t-53 -54.5t-74.5 -28.5t-84.5 -8q-34 0 -59 2.5t-45 8t-35.5 13t-30.5 17.5l27 114h59q8 -12 24.5 -20t47.5 -8q26 0 45 8.5t19 29.5q0 17 -14.5 27t-51.5 10h-53l37 160q-80 19 -139.5 57
t-98.5 92.5t-58.5 124t-19.5 150.5q0 147 50 269.5t137 210t205 136t255 48.5q107 0 183 -23.5t133 -67.5l-45 -192h-109q-23 28 -65 46.5t-105 18.5q-78 0 -141.5 -34t-108.5 -94t-69.5 -141t-24.5 -175q0 -118 53 -174.5t158 -56.5q71 0 119 17.5t90 45.5h111l-47 -203
q-51 -32 -123.5 -52.5t-171.5 -20.5h-31z" />
    <glyph glyph-name="eacute" unicode="&#xe9;" horiz-adv-x="1055" 
d="M514 -14q-223 0 -344 111.5t-121 328.5q0 87 17.5 170t51.5 157t83.5 136.5t113 107.5t141 70t167.5 25q97 0 170 -27.5t121.5 -78.5t72.5 -122.5t23 -158.5q0 -54 -9 -113t-26 -121h-635v-41q0 -65 13.5 -109.5t39.5 -72.5t64.5 -40.5t89.5 -12.5q75 0 140 19t124 56h96
l-47 -207q-59 -32 -143.5 -54.5t-202.5 -22.5zM604 901q-45 0 -82.5 -17.5t-67.5 -50.5t-52.5 -79t-36.5 -103h378q5 22 7 42t2 38q0 87 -40 128.5t-108 41.5zM543 1214l107 220h290v-86l-235 -197h-162v63z" />
    <glyph glyph-name="egrave" unicode="&#xe8;" horiz-adv-x="1055" 
d="M514 -14q-223 0 -344 111.5t-121 328.5q0 87 17.5 170t51.5 157t83.5 136.5t113 107.5t141 70t167.5 25q97 0 170 -27.5t121.5 -78.5t72.5 -122.5t23 -158.5q0 -54 -9 -113t-26 -121h-635v-41q0 -65 13.5 -109.5t39.5 -72.5t64.5 -40.5t89.5 -12.5q75 0 140 19t124 56h96
l-47 -207q-59 -32 -143.5 -54.5t-202.5 -22.5zM604 901q-45 0 -82.5 -17.5t-67.5 -50.5t-52.5 -79t-36.5 -103h378q5 22 7 42t2 38q0 87 -40 128.5t-108 41.5zM373 1348v86h283l78 -220v-63h-181z" />
    <glyph glyph-name="ecircumflex" unicode="&#xea;" horiz-adv-x="1055" 
d="M514 -14q-223 0 -344 111.5t-121 328.5q0 87 17.5 170t51.5 157t83.5 136.5t113 107.5t141 70t167.5 25q97 0 170 -27.5t121.5 -78.5t72.5 -122.5t23 -158.5q0 -54 -9 -113t-26 -121h-635v-41q0 -65 13.5 -109.5t39.5 -72.5t64.5 -40.5t89.5 -12.5q75 0 140 19t124 56h96
l-47 -207q-59 -32 -143.5 -54.5t-202.5 -22.5zM604 901q-45 0 -82.5 -17.5t-67.5 -50.5t-52.5 -79t-36.5 -103h378q5 22 7 42t2 38q0 87 -40 128.5t-108 41.5zM357 1227l217 207h205l147 -207v-76h-168l-104 96l-146 -96h-151v76z" />
    <glyph glyph-name="edieresis" unicode="&#xeb;" horiz-adv-x="1055" 
d="M514 -14q-223 0 -344 111.5t-121 328.5q0 87 17.5 170t51.5 157t83.5 136.5t113 107.5t141 70t167.5 25q97 0 170 -27.5t121.5 -78.5t72.5 -122.5t23 -158.5q0 -54 -9 -113t-26 -121h-635v-41q0 -65 13.5 -109.5t39.5 -72.5t64.5 -40.5t89.5 -12.5q75 0 140 19t124 56h96
l-47 -207q-59 -32 -143.5 -54.5t-202.5 -22.5zM604 901q-45 0 -82.5 -17.5t-67.5 -50.5t-52.5 -79t-36.5 -103h378q5 22 7 42t2 38q0 87 -40 128.5t-108 41.5zM457 1159q-32 0 -58.5 11.5t-45.5 31.5t-29 46.5t-10 56.5q0 33 13 61.5t35 49t51.5 32.5t61.5 12t59 -11.5
t46.5 -31.5t30 -46.5t10.5 -55.5q0 -34 -13.5 -62.5t-36 -49.5t-52.5 -32.5t-62 -11.5zM850 1159q-32 0 -58.5 11.5t-45.5 31.5t-29 46.5t-10 56.5q0 33 13 61.5t35.5 49t52 32.5t61.5 12t59 -11.5t46 -31.5t29.5 -46.5t10.5 -55.5q0 -34 -13.5 -62.5t-36 -49.5t-52.5 -32.5
t-62 -11.5z" />
    <glyph glyph-name="iacute" unicode="&#xed;" horiz-adv-x="532" 
d="M240 1075h163q36 0 60 -6.5t35.5 -27t10.5 -59.5t-15 -103l-201 -879h-299zM296 1214l107 220h290v-86l-235 -197h-162v63z" />
    <glyph glyph-name="igrave" unicode="&#xec;" horiz-adv-x="532" 
d="M240 1075h163q36 0 60 -6.5t35.5 -27t10.5 -59.5t-15 -103l-201 -879h-299zM126 1348v86h283l78 -220v-63h-181z" />
    <glyph glyph-name="icircumflex" unicode="&#xee;" horiz-adv-x="532" 
d="M240 1075h163q36 0 60 -6.5t35.5 -27t10.5 -59.5t-15 -103l-201 -879h-299zM104 1227l217 207h205l147 -207v-76h-168l-104 96l-146 -96h-151v76z" />
    <glyph glyph-name="idieresis" unicode="&#xef;" horiz-adv-x="532" 
d="M240 1075h163q36 0 60 -6.5t35.5 -27t10.5 -59.5t-15 -103l-201 -879h-299zM210 1159q-32 0 -58.5 11.5t-45.5 31.5t-29 46.5t-10 56.5q0 33 13 61.5t35 49t51.5 32.5t61.5 12t59 -11.5t46.5 -31.5t30 -46.5t10.5 -55.5q0 -34 -13.5 -62.5t-36 -49.5t-52.5 -32.5
t-62 -11.5zM603 1159q-32 0 -58.5 11.5t-45.5 31.5t-29 46.5t-10 56.5q0 33 13 61.5t35.5 49t52 32.5t61.5 12t59 -11.5t46 -31.5t29.5 -46.5t10.5 -55.5q0 -34 -13.5 -62.5t-36 -49.5t-52.5 -32.5t-62 -11.5z" />
    <glyph glyph-name="ntilde" unicode="&#xf1;" horiz-adv-x="1171" 
d="M238 1075h98q42 0 71 -10t47.5 -28t27 -44t10.5 -57q41 33 84.5 61.5t92.5 49.5t103.5 33t118.5 12q63 0 112.5 -25t80 -72t39 -114.5t-10.5 -151.5l-168 -729h-199q-26 0 -43 6t-25.5 21.5t-8 41t9.5 64.5l133 596q14 65 -5 95t-69 30q-57 0 -124 -23.5t-150 -74.5
l-172 -756h-299zM836 1157q-36 0 -66.5 9t-57 19.5t-48.5 19.5t-41 9q-29 0 -46 -15t-28 -44h-153v78q32 96 87.5 144t137.5 48q36 0 67 -8.5t57.5 -18t49 -18t41.5 -8.5q28 0 43.5 14.5t28.5 40.5h153v-77q-65 -193 -225 -193z" />
    <glyph glyph-name="oacute" unicode="&#xf3;" horiz-adv-x="1165" 
d="M537 195q68 0 120.5 37t88 98.5t53.5 141t18 165.5q0 64 -13.5 110t-37.5 75.5t-58 43t-75 13.5q-66 0 -119 -38t-89.5 -101t-56.5 -143.5t-20 -164.5q0 -65 13.5 -110t38 -73t59.5 -41t78 -13zM526 -12q-112 0 -199.5 31.5t-148 90t-92 141.5t-31.5 187q0 149 47.5 270
t128 206.5t187 131.5t223.5 46q112 0 199.5 -33t147.5 -94t91 -146t31 -188q0 -149 -45 -268.5t-123.5 -202.5t-185 -127.5t-230.5 -44.5zM580 1214l107 220h290v-86l-235 -197h-162v63z" />
    <glyph glyph-name="ograve" unicode="&#xf2;" horiz-adv-x="1165" 
d="M537 195q68 0 120.5 37t88 98.5t53.5 141t18 165.5q0 64 -13.5 110t-37.5 75.5t-58 43t-75 13.5q-66 0 -119 -38t-89.5 -101t-56.5 -143.5t-20 -164.5q0 -65 13.5 -110t38 -73t59.5 -41t78 -13zM526 -12q-112 0 -199.5 31.5t-148 90t-92 141.5t-31.5 187q0 149 47.5 270
t128 206.5t187 131.5t223.5 46q112 0 199.5 -33t147.5 -94t91 -146t31 -188q0 -149 -45 -268.5t-123.5 -202.5t-185 -127.5t-230.5 -44.5zM410 1348v86h283l78 -220v-63h-181z" />
    <glyph glyph-name="ocircumflex" unicode="&#xf4;" horiz-adv-x="1165" 
d="M537 195q68 0 120.5 37t88 98.5t53.5 141t18 165.5q0 64 -13.5 110t-37.5 75.5t-58 43t-75 13.5q-66 0 -119 -38t-89.5 -101t-56.5 -143.5t-20 -164.5q0 -65 13.5 -110t38 -73t59.5 -41t78 -13zM526 -12q-112 0 -199.5 31.5t-148 90t-92 141.5t-31.5 187q0 149 47.5 270
t128 206.5t187 131.5t223.5 46q112 0 199.5 -33t147.5 -94t91 -146t31 -188q0 -149 -45 -268.5t-123.5 -202.5t-185 -127.5t-230.5 -44.5zM387 1227l217 207h205l147 -207v-76h-168l-104 96l-146 -96h-151v76z" />
    <glyph glyph-name="odieresis" unicode="&#xf6;" horiz-adv-x="1165" 
d="M537 195q68 0 120.5 37t88 98.5t53.5 141t18 165.5q0 64 -13.5 110t-37.5 75.5t-58 43t-75 13.5q-66 0 -119 -38t-89.5 -101t-56.5 -143.5t-20 -164.5q0 -65 13.5 -110t38 -73t59.5 -41t78 -13zM526 -12q-112 0 -199.5 31.5t-148 90t-92 141.5t-31.5 187q0 149 47.5 270
t128 206.5t187 131.5t223.5 46q112 0 199.5 -33t147.5 -94t91 -146t31 -188q0 -149 -45 -268.5t-123.5 -202.5t-185 -127.5t-230.5 -44.5zM494 1159q-32 0 -58.5 11.5t-45.5 31.5t-29 46.5t-10 56.5q0 33 13 61.5t35 49t51.5 32.5t61.5 12t59 -11.5t46.5 -31.5t30 -46.5
t10.5 -55.5q0 -34 -13.5 -62.5t-36 -49.5t-52.5 -32.5t-62 -11.5zM887 1159q-32 0 -58.5 11.5t-45.5 31.5t-29 46.5t-10 56.5q0 33 13 61.5t35.5 49t52 32.5t61.5 12t59 -11.5t46 -31.5t29.5 -46.5t10.5 -55.5q0 -34 -13.5 -62.5t-36 -49.5t-52.5 -32.5t-62 -11.5z" />
    <glyph glyph-name="otilde" unicode="&#xf5;" horiz-adv-x="1165" 
d="M537 195q68 0 120.5 37t88 98.5t53.5 141t18 165.5q0 64 -13.5 110t-37.5 75.5t-58 43t-75 13.5q-66 0 -119 -38t-89.5 -101t-56.5 -143.5t-20 -164.5q0 -65 13.5 -110t38 -73t59.5 -41t78 -13zM526 -12q-112 0 -199.5 31.5t-148 90t-92 141.5t-31.5 187q0 149 47.5 270
t128 206.5t187 131.5t223.5 46q112 0 199.5 -33t147.5 -94t91 -146t31 -188q0 -149 -45 -268.5t-123.5 -202.5t-185 -127.5t-230.5 -44.5zM809 1157q-36 0 -66.5 9t-57 19.5t-48.5 19.5t-41 9q-29 0 -46 -15t-28 -44h-153v78q32 96 87.5 144t137.5 48q36 0 67 -8.5t57.5 -18
t49 -18t41.5 -8.5q28 0 43.5 14.5t28.5 40.5h153v-77q-65 -193 -225 -193z" />
    <glyph glyph-name="uacute" unicode="&#xfa;" horiz-adv-x="1165" 
d="M842 0q-44 0 -75 10.5t-51 29t-30.5 44.5t-13.5 57q-41 -33 -82.5 -61.5t-87 -50t-96.5 -33.5t-109 -12q-70 0 -123 24t-84.5 70t-39.5 113.5t13 154.5l170 729h199q26 0 43.5 -6t26 -21t8 -41t-9.5 -65l-133 -596q-14 -65 5 -96t68 -31q54 0 116 23t136 69l174 764h299
l-245 -1075h-78v0zM608 1214l107 220h290v-86l-235 -197h-162v63z" />
    <glyph glyph-name="ugrave" unicode="&#xf9;" horiz-adv-x="1165" 
d="M842 0q-44 0 -75 10.5t-51 29t-30.5 44.5t-13.5 57q-41 -33 -82.5 -61.5t-87 -50t-96.5 -33.5t-109 -12q-70 0 -123 24t-84.5 70t-39.5 113.5t13 154.5l170 729h199q26 0 43.5 -6t26 -21t8 -41t-9.5 -65l-133 -596q-14 -65 5 -96t68 -31q54 0 116 23t136 69l174 764h299
l-245 -1075h-78v0zM438 1348v86h283l78 -220v-63h-181z" />
    <glyph glyph-name="ucircumflex" unicode="&#xfb;" horiz-adv-x="1165" 
d="M842 0q-44 0 -75 10.5t-51 29t-30.5 44.5t-13.5 57q-41 -33 -82.5 -61.5t-87 -50t-96.5 -33.5t-109 -12q-70 0 -123 24t-84.5 70t-39.5 113.5t13 154.5l170 729h199q26 0 43.5 -6t26 -21t8 -41t-9.5 -65l-133 -596q-14 -65 5 -96t68 -31q54 0 116 23t136 69l174 764h299
l-245 -1075h-78v0zM416 1227l217 207h205l147 -207v-76h-168l-104 96l-146 -96h-151v76z" />
    <glyph glyph-name="udieresis" unicode="&#xfc;" horiz-adv-x="1165" 
d="M842 0q-44 0 -75 10.5t-51 29t-30.5 44.5t-13.5 57q-41 -33 -82.5 -61.5t-87 -50t-96.5 -33.5t-109 -12q-70 0 -123 24t-84.5 70t-39.5 113.5t13 154.5l170 729h199q26 0 43.5 -6t26 -21t8 -41t-9.5 -65l-133 -596q-14 -65 5 -96t68 -31q54 0 116 23t136 69l174 764h299
l-245 -1075h-78v0zM522 1159q-32 0 -58.5 11.5t-45.5 31.5t-29 46.5t-10 56.5q0 33 13 61.5t35 49t51.5 32.5t61.5 12t59 -11.5t46.5 -31.5t30 -46.5t10.5 -55.5q0 -34 -13.5 -62.5t-36 -49.5t-52.5 -32.5t-62 -11.5zM915 1159q-32 0 -58.5 11.5t-45.5 31.5t-29 46.5
t-10 56.5q0 33 13 61.5t35.5 49t52 32.5t61.5 12t59 -11.5t46 -31.5t29.5 -46.5t10.5 -55.5q0 -34 -13.5 -62.5t-36 -49.5t-52.5 -32.5t-62 -11.5z" />
    <glyph glyph-name="dagger" unicode="&#x2020;" horiz-adv-x="961" 
d="M336 551l29 125l110 205l-233 -64h-123l65 289h105l223 -66l-4 222l39 172h289l-43 -193l-103 -201l232 66h125l-66 -289h-107l-221 64l13 -228l-29 -127l-191 -626h-213z" />
    <glyph glyph-name="degree" unicode="&#xb0;" horiz-adv-x="713" 
d="M483 1006q31 0 59 11t48.5 31.5t32.5 50.5t12 68q0 61 -36.5 101t-98.5 40q-32 0 -59 -11t-46.5 -32t-31 -50.5t-11.5 -67.5q0 -62 34.5 -101.5t96.5 -39.5zM475 868q-62 0 -114 21t-90 57.5t-59.5 87.5t-21.5 111q0 70 26.5 126t71 95t101.5 59.5t119 20.5
q61 0 113.5 -21t90.5 -57.5t59.5 -87.5t21.5 -111q0 -71 -26.5 -127t-71 -94.5t-102 -59t-118.5 -20.5z" />
    <glyph glyph-name="cent" unicode="&#xa2;" 
d="M508 -2q-92 17 -161 55.5t-115 95t-68.5 129.5t-22.5 158q0 137 48 253.5t131.5 202.5t197 138t244.5 60l26 116h183l-29 -123q72 -9 121.5 -30t91.5 -52l-45 -192h-109q-17 19 -43.5 34t-64.5 23l-154 -663q57 6 96.5 21.5t71.5 37.5h111l-47 -203q-47 -29 -114 -48.5
t-169 -24.5l-45 -197h-182zM436 442q0 -88 31.5 -144t91.5 -81l150 643q-67 -18 -118 -58t-85.5 -95.5t-52 -123t-17.5 -141.5z" />
    <glyph glyph-name="sterling" unicode="&#xa3;" 
d="M213 821h90q-3 59 -0.5 118t16.5 118q23 99 73 173t122 122.5t164 73t199 24.5q115 0 210 -27.5t164 -89.5l-47 -213h-108q-42 40 -95 65t-135 25q-38 0 -75.5 -10.5t-69.5 -32.5t-56 -55.5t-34 -79.5q-13 -51 -16 -103t-5 -108h342l-47 -209h-299q-3 -35 -7.5 -70.5
t-12.5 -70.5q-17 -68 -51.5 -125.5t-79.5 -95.5h612l-57 -250h-983l47 211q38 13 73.5 36t64.5 54t50.5 69.5t32.5 82.5q9 40 12.5 79.5t3.5 79.5h-145z" />
    <glyph glyph-name="section" unicode="&#xa7;" horiz-adv-x="1073" 
d="M369 -268q-73 0 -131.5 10t-105 26t-83 35.5t-65.5 38.5l47 201h100q19 -19 44 -37t55.5 -32t66.5 -22.5t78 -8.5q93 0 136.5 27.5t43.5 78.5q0 26 -11.5 47.5t-37 41.5t-67 39.5t-101.5 41.5q-151 54 -222 130.5t-71 193.5q0 65 21 116t58.5 88.5t88.5 63.5t111 41
q-41 40 -58.5 92.5t-17.5 124.5q0 82 33.5 152t95 121t148.5 79.5t194 28.5q70 0 123.5 -8t95.5 -21t74.5 -29.5t60.5 -33.5l-45 -201h-106q-18 14 -38.5 27t-45.5 23.5t-55.5 17t-67.5 6.5q-88 0 -140.5 -31.5t-52.5 -85.5q0 -25 7.5 -45t29 -38t60 -36t100.5 -39
q82 -27 144 -57.5t104 -69.5t63 -89t21 -117q0 -46 -14.5 -93.5t-47.5 -90t-87 -77t-132 -55.5q42 -38 63 -85.5t21 -110.5q0 -86 -31 -155.5t-92.5 -119.5t-152 -77t-209.5 -27zM483 459q34 -14 65.5 -25.5t59.5 -25.5q79 21 118.5 56.5t39.5 92.5q0 28 -10.5 49.5
t-32.5 39.5t-54.5 34t-76.5 31q-29 9 -55.5 18.5t-49.5 20.5q-83 -13 -122 -53t-39 -91q0 -44 35 -79.5t122 -67.5z" />
    <glyph glyph-name="bullet" unicode="&#x2022;" horiz-adv-x="655" 
d="M313 297q-54 0 -101.5 17t-83 49.5t-56.5 78.5t-21 105q0 70 25 126t67 95.5t98 60.5t119 21q53 0 100.5 -17t83 -49.5t56.5 -79t21 -104.5q0 -71 -24 -127t-65.5 -95t-98 -60t-120.5 -21z" />
    <glyph glyph-name="paragraph" unicode="&#xb6;" horiz-adv-x="1212" 
d="M537 621h-7q-79 0 -147.5 23t-118.5 66.5t-79 107t-29 145.5q0 92 24.5 163t67.5 123.5t102 88t128.5 57t146 30.5t155.5 9h516l-374 -1620h-213l327 1411h-145l-328 -1411h-213z" />
    <glyph glyph-name="germandbls" unicode="&#xdf;" horiz-adv-x="1231" 
d="M745 -12q-103 0 -175.5 23.5t-123.5 58.5l46 200h90q12 -17 31 -29t41.5 -20t47.5 -12t50 -4q35 0 60 7.5t40.5 19t23 25.5t7.5 28q0 21 -8.5 36.5t-24.5 29t-40.5 27.5t-55.5 32q-48 27 -83.5 53t-58.5 55.5t-34 62.5t-11 74q0 46 15.5 86t42 76t62 69.5t75.5 67.5
q39 33 68 58t47.5 46.5t28 41.5t9.5 43q0 41 -37 71.5t-110 30.5q-60 0 -101.5 -17t-69 -45.5t-43 -64.5t-24.5 -74l-239 -1044h-299l241 1055q18 83 58.5 155.5t108 126.5t163.5 85.5t225 31.5q88 0 164.5 -20t132 -58.5t87.5 -93t32 -123.5q0 -48 -11.5 -85.5t-35.5 -70.5
t-60 -63.5t-85 -62.5q-34 -23 -66 -44.5t-57 -42.5t-40 -40t-15 -37q0 -14 6 -25.5t19.5 -23.5t36 -26t56.5 -34q53 -32 92 -63.5t64 -66.5t37 -74.5t12 -86.5q0 -75 -28 -135t-81 -102.5t-129.5 -65t-173.5 -22.5z" />
    <glyph glyph-name="registered" unicode="&#xae;" horiz-adv-x="791" 
d="M520 717q-74 0 -142 24.5t-120 71.5t-83.5 115t-31.5 155q0 88 31.5 156t83.5 115t120 71.5t142 24.5q73 0 141 -24.5t120.5 -71.5t84 -115t31.5 -156q0 -87 -31.5 -155t-84 -115t-120.5 -71.5t-141 -24.5zM520 791q61 0 114 18.5t92.5 55t62 91t22.5 127.5t-22.5 128
t-62 91.5t-92.5 55t-114 18.5t-114 -18.5t-92.5 -55t-62 -91.5t-22.5 -128t22.5 -127.5t62 -91t92.5 -55t114 -18.5zM520 1032h-35v-129h-116v379h163q156 0 156 -125q0 -34 -15.5 -59.5t-43.5 -40.5l67 -117v-37h-110zM522 1108q28 0 38.5 13t10.5 38q0 22 -10.5 34.5
t-38.5 12.5h-37v-98h37z" />
    <glyph glyph-name="copyright" unicode="&#xa9;" horiz-adv-x="1597" 
d="M866 315q-96 0 -171.5 27.5t-128 79.5t-80 127t-27.5 170q0 94 32 169.5t88 128.5t132.5 81t165.5 28q93 0 150.5 -17t94.5 -36v-172h-92q-23 22 -59 39.5t-94 17.5q-85 0 -135 -61.5t-50 -179.5q0 -123 48 -178.5t132 -55.5q35 0 61.5 5.5t47 14t35.5 19t26 21.5h82
v-156q-18 -12 -43 -24.5t-57.5 -23t-72 -17.5t-85.5 -7zM844 88q127 0 237.5 41.5t193 122t130 197.5t47.5 268q0 150 -47.5 267.5t-130 197.5t-193 122t-237.5 42t-237.5 -42t-193 -122t-130 -197.5t-47.5 -267.5q0 -151 47.5 -268t130 -197.5t193 -122t237.5 -41.5z
M844 -16q-147 0 -280 48t-234 141t-161 230t-60 314t60 314t161 230t234 141t280 48t280 -48t234 -141t161 -230t60 -314t-60 -314t-161 -230t-234 -141t-280 -48z" />
    <glyph glyph-name="trademark" unicode="&#x2122;" horiz-adv-x="1401" 
d="M844 1434h252l18 -312h2l164 312h260l-133 -574h-166l102 436h-2l-235 -436h-121l-29 436h-2l-102 -436h-141zM397 1311h-164l29 123h500l-29 -123h-166l-104 -451h-170z" />
    <glyph glyph-name="acute" unicode="&#xb4;" horiz-adv-x="819" 
d="M471 1214l107 220h290v-86l-235 -197h-162v63z" />
    <glyph glyph-name="dieresis" unicode="&#xa8;" horiz-adv-x="819" 
d="M385 1159q-32 0 -58.5 11.5t-45.5 31.5t-29 46.5t-10 56.5q0 33 13 61.5t35 49t51.5 32.5t61.5 12t59 -11.5t46.5 -31.5t30 -46.5t10.5 -55.5q0 -34 -13.5 -62.5t-36 -49.5t-52.5 -32.5t-62 -11.5zM778 1159q-32 0 -58.5 11.5t-45.5 31.5t-29 46.5t-10 56.5q0 33 13 61.5
t35.5 49t52 32.5t61.5 12t59 -11.5t46 -31.5t29.5 -46.5t10.5 -55.5q0 -34 -13.5 -62.5t-36 -49.5t-52.5 -32.5t-62 -11.5z" />
    <glyph glyph-name="AE" unicode="&#xc6;" horiz-adv-x="1909" 
d="M-88 84l958 1350h1137l-53 -232h-594l-84 -364h438l-51 -220h-438l-90 -393h641l-52 -225h-960l88 383h-426l-262 -383h-252v84zM578 602h323l139 600h-49z" />
    <glyph glyph-name="Oslash" unicode="&#xd8;" horiz-adv-x="1495" 
d="M707 -16q-107 0 -197 26t-162 74l-110 -123h-199v55l174 193q-59 78 -90 174.5t-31 206.5q0 111 24 218.5t70.5 203t113 176t152 139t188 91t220.5 32.5q109 0 200.5 -28t166.5 -79l102 113h199v-55l-166 -187q56 -75 85.5 -169.5t29.5 -200.5t-22.5 -211.5t-67 -201
t-110 -177.5t-151 -142t-190.5 -94t-229 -34zM412 582q0 -38 2 -72t8 -66l637 711q-34 34 -85 54t-120 20q-77 0 -140 -30.5t-112 -81t-85 -116.5t-59 -138t-34.5 -145t-11.5 -136zM721 203q77 0 139 29.5t110.5 79.5t83.5 115.5t58 137.5t34 145.5t11 139.5q0 32 -2.5 63
t-7.5 62l-635 -709q35 -31 86.5 -47t122.5 -16z" />
    <glyph glyph-name="yen" unicode="&#xa5;" 
d="M190 791h261l-185 552v91h289l158 -549h4l381 549h245v-91l-415 -552h266l-41 -179h-346l-25 -112h344l-41 -178h-344l-73 -322h-316l74 322h-344l41 178h344l25 112h-342z" />
    <glyph glyph-name="ordfeminine" unicode="&#xaa;" horiz-adv-x="915" 
d="M770 528q-56 0 -92.5 24t-48.5 77q-48 -57 -114 -84t-144 -27q-60 0 -107 17.5t-79 49.5t-49 77.5t-17 101.5q0 79 30.5 138t85.5 98t130 58t165 19q47 0 91 -5.5t81 -14.5l7 22q10 48 6 80.5t-21 53t-46 29.5t-68 9q-63 0 -124 -15t-112 -44h-82l47 197q65 27 146 44
t180 17q98 0 172.5 -22.5t120 -70.5t59.5 -123t-10 -179l-121 -527h-86zM477 690q47 0 85.5 20t72.5 46l35 151q-54 17 -117 17q-81 0 -124.5 -36t-43.5 -104q0 -48 24.5 -71t67.5 -23z" />
    <glyph glyph-name="ordmasculine" unicode="&#xba;" horiz-adv-x="1065" 
d="M590 711q45 0 88.5 24t78 70t56 112.5t21.5 151.5q0 42 -10 77.5t-30.5 61t-51 40t-70.5 14.5q-43 0 -86.5 -22.5t-78.5 -68.5t-57 -114.5t-22 -159.5q0 -94 45 -140t117 -46zM580 516q-96 0 -175 28t-135 79t-87 123t-31 159q0 127 44 228t117 171.5t168 108t197 37.5
q89 0 167.5 -25.5t137.5 -74.5t93 -122t34 -167q0 -85 -20.5 -158.5t-57 -134t-87 -107.5t-109 -79t-124 -49t-132.5 -17z" />
    <glyph glyph-name="ae" unicode="&#xe6;" horiz-adv-x="1638" 
d="M324 -12q-74 0 -133 18.5t-100 55t-63 90t-22 124.5q0 88 33 157.5t94 118t147.5 74t192.5 25.5h193l2 11q24 106 -9 160.5t-133 54.5q-81 0 -144 -17t-120 -49h-86l49 213q35 15 72.5 27.5t80.5 21.5t92 14t108 5q112 0 188 -30t117 -93q69 57 155 90t185 33
q96 0 166 -27.5t115.5 -78.5t67.5 -122.5t21 -158.5q0 -54 -8.5 -113t-25.5 -121h-635v-41q0 -65 13 -109.5t38.5 -72.5t64.5 -40.5t90 -12.5q76 0 141 19t124 56h96l-45 -200q-29 -15 -65.5 -30t-80 -27t-94 -19.5t-108.5 -7.5q-138 0 -237 44t-156 128
q-30 -36 -67.5 -67.5t-84 -54t-103.5 -35.5t-126 -13zM633 426q0 11 -1 22t1 23h-141q-103 0 -154 -48t-51 -126q0 -59 30 -91t89 -32q36 0 70 9.5t65 27t57 40.5t47 50q-12 58 -12 125zM1200 901q-94 0 -157.5 -68t-94.5 -182h379q5 22 6.5 42t1.5 38q0 87 -36 128.5
t-99 41.5z" />
    <glyph glyph-name="oslash" unicode="&#xf8;" horiz-adv-x="1165" 
d="M526 -12q-152 0 -256 55l-82 -94h-170v55l125 143q-43 57 -65.5 130t-22.5 161q0 149 47.5 270t128 206.5t187 131.5t223.5 46q77 0 143.5 -16.5t118.5 -47.5l72 82h172v-55l-119 -137q40 -57 61 -129.5t21 -157.5q0 -149 -45 -268.5t-123.5 -202.5t-185 -127.5
t-230.5 -44.5zM338 432v-29t2 -26l408 471q-47 33 -115 33t-123 -38.5t-93 -101.5t-58.5 -144t-20.5 -165zM537 193q70 0 124 37t90.5 99t55 142t18.5 166q0 12 -1 23t-1 22l-401 -463q45 -26 115 -26z" />
    <glyph glyph-name="questiondown" unicode="&#xbf;" horiz-adv-x="920" 
d="M756 864q-6 -64 -16.5 -115.5t-34 -98t-64 -91t-104.5 -92.5q-36 -27 -77 -55t-75.5 -61t-57 -72.5t-22.5 -88.5q0 -32 11.5 -55t31.5 -38t48 -22t61 -7q68 0 123 20t100 51h117l-52 -223q-63 -37 -148 -59.5t-194 -22.5q-80 0 -154.5 17t-132 56t-92 103.5t-34.5 159.5
q0 64 22 122t61 109t92.5 95t117.5 82q55 32 99.5 61t77 61.5t53.5 71.5t30 92h213zM705 1298q35 0 64.5 -12.5t50.5 -34t32.5 -50.5t11.5 -62q0 -36 -14.5 -67.5t-39 -54t-57 -35.5t-67.5 -13q-36 0 -66 12.5t-51 34.5t-33 51t-12 61q0 37 15 68.5t40 54t57.5 35t68.5 12.5
z" />
    <glyph glyph-name="exclamdown" unicode="&#xa1;" horiz-adv-x="541" 
d="M313 29l-41 -176h-319l41 176l268 835h189zM420 1298q35 0 64.5 -12.5t50.5 -34t33 -50.5t12 -62q0 -36 -14.5 -67.5t-39.5 -54t-57 -35.5t-68 -13t-65.5 12.5t-51 34.5t-33 51t-11.5 61q0 37 15 68.5t40 54t57.5 35t67.5 12.5z" />
    <glyph glyph-name="florin" unicode="&#x192;" 
d="M348 909h162l59 248q19 82 55.5 138.5t88.5 92t120 51t152 15.5q27 0 54 -2.5t51.5 -7t44.5 -10.5t34 -13l-39 -174h-79q-40 0 -69.5 -4t-50 -14.5t-34 -30.5t-20.5 -51l-58 -238h242l-47 -200h-242l-215 -914h-309l215 914h-162z" />
    <glyph glyph-name="guillemotleft" unicode="&#xab;" horiz-adv-x="1055" 
d="M61 489l27 117l326 377h241v-65l-331 -398v-6l139 -367v-65h-238zM494 489l26 117l326 377h241v-65l-331 -398v-6l139 -367v-65h-238z" />
    <glyph glyph-name="guillemotright" unicode="&#xbb;" horiz-adv-x="1055" 
d="M-27 147l332 398v6l-139 367v65h237l164 -408l-26 -116l-326 -377h-242v65zM406 147l331 398v6l-139 367v65h238l163 -408l-26 -116l-326 -377h-241v65z" />
    <glyph glyph-name="ellipsis" unicode="&#x2026;" horiz-adv-x="1346" 
d="M123 -12q-35 0 -66 12.5t-53.5 34.5t-35.5 52t-13 65q0 34 13 64.5t35.5 52.5t53.5 35t66 13q34 0 65 -13t53.5 -35t36 -52.5t13.5 -64.5q0 -35 -13.5 -65t-36 -52t-53.5 -34.5t-65 -12.5zM590 -12q-35 0 -66 12.5t-53.5 34.5t-35.5 52t-13 65q0 34 13 64.5t35.5 52.5
t53.5 35t66 13q34 0 65 -13t53.5 -35t36 -52.5t13.5 -64.5q0 -35 -13.5 -65t-36 -52t-53.5 -34.5t-65 -12.5zM1057 -12q-35 0 -66 12.5t-53.5 34.5t-35.5 52t-13 65q0 34 13 64.5t35.5 52.5t53.5 35t66 13q34 0 65 -13t53.5 -35t36 -52.5t13.5 -64.5q0 -35 -13.5 -65
t-36 -52t-53.5 -34.5t-65 -12.5z" />
    <glyph glyph-name="uni00A0" unicode="&#xa0;" horiz-adv-x="614" 
 />
    <glyph glyph-name="Agrave" unicode="&#xc0;" horiz-adv-x="1362" 
d="M-70 84l762 1350h342l178 -1350v-84h-313l-41 379h-477l-199 -379h-252v84zM496 598h338l-56 528h-4zM786 1479l-172 176v86h283l69 -199v-63h-180z" />
    <glyph glyph-name="Atilde" unicode="&#xc3;" horiz-adv-x="1362" 
d="M-70 84l762 1350h342l178 -1350v-84h-313l-41 379h-477l-199 -379h-252v84zM496 598h338l-56 528h-4zM987 1481q-36 0 -66.5 9t-57 19.5t-48.5 19.5t-41 9q-29 0 -46 -15t-28 -44h-153v78q32 96 87.5 144t137.5 48q36 0 67 -8.5t57.5 -18t49 -18t41.5 -8.5
q28 0 43.5 14.5t28.5 40.5h153v-77q-65 -193 -225 -193z" />
    <glyph glyph-name="Otilde" unicode="&#xd5;" horiz-adv-x="1495" 
d="M717 205q76 0 138 29.5t110 79t83 115t58 137t34 145t11 139.5q0 71 -14 139t-48.5 121.5t-91.5 86t-143 32.5q-77 0 -139.5 -30.5t-111 -81t-83.5 -116.5t-57.5 -138t-33.5 -145t-11 -136q0 -79 16 -148t52 -120t93 -80t138 -29zM707 -16q-142 0 -256 44t-193.5 123.5
t-122.5 191.5t-43 247q0 111 24 218.5t70.5 203t113 176t152 139t188 91t220.5 32.5q141 0 255.5 -44.5t194.5 -124.5t123.5 -191.5t43.5 -245.5q0 -106 -23 -211.5t-67.5 -201t-110 -177.5t-151 -142t-190.5 -94t-228 -34zM1020 1481q-36 0 -66.5 9t-57 19.5t-48.5 19.5
t-41 9q-29 0 -46 -15t-28 -44h-153v78q32 96 87.5 144t137.5 48q36 0 67 -8.5t57.5 -18t49 -18t41.5 -8.5q28 0 43.5 14.5t28.5 40.5h153v-77q-65 -193 -225 -193z" />
    <glyph glyph-name="OE" unicode="&#x152;" horiz-adv-x="1976" 
d="M92 571q0 106 22 211.5t66.5 201.5t111.5 178.5t156 142.5t200 94.5t245 34.5h1182l-54 -232h-594l-84 -364h439l-51 -220h-439l-90 -393h641l-51 -225h-1057q-167 0 -288 36.5t-200 108t-117 178.5t-38 248zM420 571q0 -74 12 -137t47 -109.5t98 -73t164 -26.5h142
l225 979h-207q-94 0 -166.5 -29t-126 -78t-89.5 -113t-58 -134.5t-31.5 -142.5t-9.5 -136z" />
    <glyph glyph-name="oe" unicode="&#x153;" horiz-adv-x="1804" 
d="M526 -12q-112 0 -199.5 31.5t-148 90t-92 141.5t-31.5 187q0 149 47.5 270t128 206.5t187 131.5t223.5 46q130 0 218 -51t136 -142q68 90 166 141.5t228 51.5q96 0 166 -27.5t115.5 -78.5t67.5 -122.5t21 -158.5q0 -109 -35 -234h-634v-41q0 -65 13 -109.5t38.5 -72.5
t64.5 -40.5t90 -12.5q76 0 141 19t124 56h96l-45 -200q-29 -15 -65.5 -30t-80 -27t-94 -19.5t-108.5 -7.5q-138 0 -225 46t-134 136q-72 -88 -169 -134t-210 -46zM537 195q68 0 120.5 37t88 98.5t53.5 141t18 165.5q0 64 -13.5 110t-37.5 75.5t-58 43t-75 13.5
q-66 0 -119 -38t-89.5 -101t-56.5 -143.5t-20 -164.5q0 -65 13.5 -110t38 -73t59.5 -41t78 -13zM1366 901q-94 0 -157.5 -68t-94.5 -182h379q5 22 6.5 42t1.5 38q0 87 -36 128.5t-99 41.5z" />
    <glyph glyph-name="endash" unicode="&#x2013;" horiz-adv-x="936" 
d="M135 694h739l-53 -231h-739z" />
    <glyph glyph-name="emdash" unicode="&#x2014;" horiz-adv-x="1571" 
d="M135 694h1374l-53 -231h-1374z" />
    <glyph glyph-name="quotedblleft" unicode="&#x201c;" horiz-adv-x="795" 
d="M317 928q-33 0 -61.5 11.5t-50 32t-33.5 50t-12 65.5q0 82 29 146.5t82 109t126.5 69t163.5 28.5l-31 -133q-63 -7 -102 -26t-39 -48q0 -19 10.5 -26.5t30.5 -20.5q23 -16 36 -40t13 -56q0 -36 -13 -66t-35.5 -51.5t-52 -33t-61.5 -11.5zM717 928q-33 0 -62 11.5t-50 32
t-33.5 50t-12.5 65.5q0 82 29 146.5t82 109t127 69t164 28.5l-31 -133q-63 -7 -102.5 -26t-39.5 -48q0 -9 2.5 -15t8 -11t13 -9.5t17.5 -11.5q23 -16 36.5 -40t13.5 -56q0 -36 -13 -66t-35.5 -51.5t-52 -33t-61.5 -11.5z" />
    <glyph glyph-name="quotedblright" unicode="&#x201d;" horiz-adv-x="774" 
d="M147 1069q63 6 102.5 25.5t39.5 48.5q0 18 -10.5 25.5t-30.5 21.5q-23 15 -36 39.5t-13 56.5q0 36 13 66t35 51t51.5 33t61.5 12q33 0 62 -11.5t50.5 -32.5t33.5 -50.5t12 -65.5q0 -82 -29 -146t-82 -108.5t-126.5 -69t-163.5 -28.5zM547 1069q63 6 102 25.5t39 48.5
q0 18 -10.5 25.5t-30.5 21.5q-23 15 -36 39.5t-13 56.5q0 36 13 66t35.5 51t52 33t61.5 12q33 0 62 -11.5t50 -32.5t33.5 -50.5t12.5 -65.5q0 -82 -29 -146t-82 -108.5t-127 -69t-164 -28.5z" />
    <glyph glyph-name="quoteleft" unicode="&#x2018;" horiz-adv-x="375" 
d="M317 928q-33 0 -61.5 11.5t-50 32t-33.5 50t-12 65.5q0 82 29 146.5t82 109t126.5 69t163.5 28.5l-31 -133q-63 -7 -102 -26t-39 -48q0 -19 10.5 -26.5t30.5 -20.5q23 -16 36 -40t13 -56q0 -36 -13 -66t-35.5 -51.5t-52 -33t-61.5 -11.5z" />
    <glyph glyph-name="quoteright" unicode="&#x2019;" horiz-adv-x="375" 
d="M145 1069q63 6 103.5 25.5t40.5 48.5q0 18 -10.5 25.5t-30.5 21.5q-23 15 -36 39.5t-13 56.5q0 36 13 66t35 51t51.5 33t61.5 12q33 0 62 -11.5t50.5 -32.5t33.5 -50.5t12 -65.5q0 -82 -29 -146t-82 -108.5t-126.5 -69t-163.5 -28.5z" />
    <glyph glyph-name="divide" unicode="&#xf7;" 
d="M578 176q-36 0 -65.5 12.5t-50.5 34.5t-32.5 51t-11.5 62q0 36 14.5 67t39 54t57 36t67.5 13q36 0 66 -13t51 -35t33 -51t12 -61q0 -37 -15 -68t-40 -53.5t-57.5 -35.5t-67.5 -13zM195 825h976l-55 -235h-977zM711 909q-36 0 -65.5 12.5t-50.5 34.5t-32.5 51t-11.5 62
q0 36 14.5 67t39 54t57 36t67.5 13q36 0 66 -13t51 -35t33 -51t12 -61q0 -37 -15 -68t-40 -53.5t-57.5 -35.5t-67.5 -13z" />
    <glyph glyph-name="ydieresis" unicode="&#xff;" horiz-adv-x="1061" 
d="M35 -252l248 367l-156 882v78h281l98 -641h4l358 641h246v-78l-807 -1329h-272v80zM455 1159q-32 0 -58.5 11.5t-45.5 31.5t-29 46.5t-10 56.5q0 33 13 61.5t35 49t51.5 32.5t61.5 12t59 -11.5t46.5 -31.5t30 -46.5t10.5 -55.5q0 -34 -13.5 -62.5t-36 -49.5t-52.5 -32.5
t-62 -11.5zM848 1159q-32 0 -58.5 11.5t-45.5 31.5t-29 46.5t-10 56.5q0 33 13 61.5t35.5 49t52 32.5t61.5 12t59 -11.5t46 -31.5t29.5 -46.5t10.5 -55.5q0 -34 -13.5 -62.5t-36 -49.5t-52.5 -32.5t-62 -11.5z" />
    <glyph glyph-name="Ydieresis" unicode="&#x178;" horiz-adv-x="1212" 
d="M473 575l-254 768v91h297l180 -594h4l430 594h244v-91l-590 -798l-125 -545h-319zM629 1478q-32 0 -58.5 11.5t-45.5 31.5t-29 46.5t-10 56.5q0 33 13 61.5t35 49t51.5 32.5t61.5 12t59 -11.5t46.5 -31.5t30 -46.5t10.5 -55.5q0 -34 -13.5 -62.5t-36 -49.5t-52.5 -32.5
t-62 -11.5zM1022 1478q-32 0 -58.5 11.5t-45.5 31.5t-29 46.5t-10 56.5q0 33 13 61.5t35.5 49t52 32.5t61.5 12t59 -11.5t46 -31.5t29.5 -46.5t10.5 -55.5q0 -34 -13.5 -62.5t-36 -49.5t-52.5 -32.5t-62 -11.5z" />
    <glyph glyph-name="fraction" unicode="&#x2044;" horiz-adv-x="455" 
d="M803 1493h223l-1288 -1563h-223z" />
    <glyph glyph-name="Euro" unicode="&#x20ac;" 
d="M154 952h110q45 105 112 195.5t156.5 158t201 106t245.5 38.5q64 0 115 -5.5t93 -17t77.5 -28t68.5 -37.5l-49 -211h-115q-44 38 -91 54t-117 16q-69 0 -127 -19.5t-105 -55t-84 -85t-65 -109.5h399l-66 -178h-395q-6 -28 -10.5 -56.5t-7.5 -55.5h368l-65 -179h-311
q2 -74 19 -126t48.5 -85t79 -48t111.5 -15q86 0 151 26t119 66h104l-49 -223q-62 -37 -149 -65.5t-207 -28.5q-114 0 -211 29.5t-169.5 91t-115.5 155.5t-47 223h-131l41 179h100q3 27 8 55.5t13 56.5h-94z" />
    <glyph glyph-name="guilsinglleft" unicode="&#x2039;" horiz-adv-x="623" 
d="M61 489l27 117l326 377h241v-65l-331 -398v-6l139 -367v-65h-238z" />
    <glyph glyph-name="guilsinglright" unicode="&#x203a;" horiz-adv-x="623" 
d="M-27 147l332 398v6l-139 367v65h237l164 -408l-26 -116l-326 -377h-242v65z" />
    <glyph glyph-name="fi" unicode="&#xfb01;" horiz-adv-x="1190" 
d="M236 874h-127l43 201h127l18 82q35 154 129.5 225.5t245.5 71.5q63 0 100.5 -6.5t65.5 -17.5l-39 -183h-45q-34 0 -60.5 -4t-46.5 -14.5t-33 -30.5t-20 -51l-16 -72h184l-43 -201h-187l-196 -874h-291zM897 1075h164q35 0 59 -6.5t36 -27t11 -59.5t-16 -103l-201 -879
h-299zM1090 1161q-34 0 -62 12t-48 32.5t-31 48t-11 59.5q0 34 14 64t37.5 51.5t54 34t64.5 12.5t62 -12t48.5 -33t32 -48.5t11.5 -58.5q0 -35 -14 -65t-38 -51.5t-55 -33.5t-65 -12z" />
    <glyph glyph-name="fl" unicode="&#xfb02;" horiz-adv-x="1196" 
d="M236 874h-127l43 201h127l18 82q35 154 129.5 225.5t245.5 71.5q63 0 100.5 -6.5t65.5 -17.5l-39 -183h-45q-34 0 -60.5 -4t-46.5 -14.5t-33 -30.5t-20 -51l-16 -72h184l-43 -201h-187l-196 -874h-291zM979 1434h180q29 0 50 -6t31.5 -24t10.5 -51t-12 -87l-289 -1266
h-299z" />
    <glyph glyph-name="daggerdbl" unicode="&#x2021;" horiz-adv-x="961" 
d="M238 92l102 201l-236 -66h-122l67 289h105l223 -63l-29 163l27 109l100 156l-233 -64h-123l65 289h105l223 -66l-4 222l39 172h289l-43 -193l-103 -201l232 66h125l-66 -289h-107l-221 64l27 -164l-25 -109l-100 -155l231 63h125l-67 -289h-107l-219 66l4 -221l-41 -172
h-288z" />
    <glyph glyph-name="periodcentered" unicode="&#xb7;" horiz-adv-x="416" 
d="M215 440q-35 0 -64.5 12.5t-50.5 34.5t-33 51t-12 62q0 36 14.5 67t39 54t57 36t67.5 13q36 0 66 -13t51.5 -35t33 -51t11.5 -61q0 -37 -15 -68t-40 -53.5t-57.5 -35.5t-67.5 -13z" />
    <glyph glyph-name="quotesinglbase" unicode="&#x201a;" horiz-adv-x="375" 
d="M-100 -70q63 7 102 26t39 48q0 9 -2.5 15t-8 11t-13 9.5t-17.5 11.5q-23 16 -36 40t-13 56q0 36 13 66t35.5 51.5t52 33t61.5 11.5q33 0 61.5 -11.5t50 -32t33.5 -50t12 -65.5q0 -83 -29 -147t-81.5 -108.5t-126.5 -69t-164 -28.5z" />
    <glyph glyph-name="quotedblbase" unicode="&#x201e;" horiz-adv-x="774" 
d="M-100 -70q63 7 102 26t39 48q0 9 -2.5 15t-8 11t-13 9.5t-17.5 11.5q-23 16 -36 40t-13 56q0 36 13 66t35.5 51.5t52 33t61.5 11.5q33 0 61.5 -11.5t50 -32t33.5 -50t12 -65.5q0 -83 -29 -147t-81.5 -108.5t-126.5 -69t-164 -28.5zM299 -70q63 7 102 26t39 48
q0 9 -2.5 15t-8 11t-13 9.5t-17.5 11.5q-23 16 -36 40t-13 56q0 36 13 66t35.5 51.5t52 33t61.5 11.5q33 0 62 -11.5t50 -32t33.5 -50t12.5 -65.5q0 -83 -29 -147t-82 -108.5t-127 -69t-164 -28.5z" />
    <glyph glyph-name="perthousand" unicode="&#x2030;" horiz-adv-x="2458" 
d="M461 852q45 -1 77.5 29.5t53.5 75.5t31 96.5t10 93.5q0 26 -5 50.5t-17.5 43t-32.5 30t-50 11.5q-46 0 -79 -31t-54 -77t-31 -97.5t-10 -93.5q0 -26 5 -49.5t17.5 -41.5t33 -28.5t51.5 -11.5zM442 684q-71 0 -129 22.5t-100 62.5t-65 96t-23 124q0 91 31 174t86.5 147
t133 102t169.5 38q70 0 128.5 -22t100.5 -62t65 -97.5t23 -127.5q0 -89 -31.5 -171t-87 -146t-133 -102t-168.5 -38zM1403 1493h223l-1288 -1563h-223zM1221 152q45 0 77.5 30.5t53.5 75.5t31 96t10 92q0 26 -5 50.5t-17.5 43.5t-32.5 30.5t-50 11.5t-55 -14.5t-44 -38.5
t-33.5 -55t-23.5 -64.5t-13.5 -66.5t-4.5 -60q0 -26 5 -50t17.5 -42t33 -28.5t51.5 -10.5zM1202 -16q-71 0 -129 22t-100 61.5t-65 95.5t-23 124q0 90 31 174t86.5 148t133 102.5t169.5 38.5q70 0 128.5 -22t99.5 -62.5t64 -97.5t23 -128q0 -88 -31 -170.5t-86.5 -146
t-132.5 -101.5t-168 -38zM2021 152q45 0 77.5 30.5t53.5 75.5t31 96t10 92q0 26 -5 50.5t-17 43.5t-32 30.5t-50 11.5t-55 -14.5t-44 -38.5t-33.5 -55t-23.5 -64.5t-13.5 -66.5t-4.5 -60q0 -26 5 -50t17 -42t32.5 -28.5t51.5 -10.5zM2003 -16q-71 0 -129 22t-100 61.5
t-65 95.5t-23 124q0 90 31 174t86.5 148t132.5 102.5t169 38.5q71 0 129 -22t99.5 -62.5t64.5 -97.5t23 -128q0 -88 -31 -170.5t-86.5 -146t-132.5 -101.5t-168 -38z" />
    <glyph glyph-name="Acircumflex" unicode="&#xc2;" horiz-adv-x="1362" 
d="M-70 84l762 1350h342l178 -1350v-84h-313l-41 379h-477l-199 -379h-252v84zM496 598h338l-56 528h-4zM569 1554l215 195h205l150 -195v-75h-168l-107 86l-143 -86h-152v75z" />
    <glyph glyph-name="Ecircumflex" unicode="&#xca;" horiz-adv-x="1153" 
d="M338 1434h913l-53 -232h-594l-84 -364h438l-51 -220h-438l-90 -393h641l-51 -225h-642h-319zM504 1554l215 195h205l150 -195v-75h-168l-107 86l-143 -86h-152v75z" />
    <glyph glyph-name="Aacute" unicode="&#xc1;" horiz-adv-x="1362" 
d="M-70 84l762 1350h342l178 -1350v-84h-313l-41 379h-477l-199 -379h-252v84zM496 598h338l-56 528h-4zM766 1542l96 199h291v-86l-225 -176h-162v63z" />
    <glyph glyph-name="Edieresis" unicode="&#xcb;" horiz-adv-x="1153" 
d="M338 1434h913l-53 -232h-594l-84 -364h438l-51 -220h-438l-90 -393h641l-51 -225h-642h-319zM629 1478q-32 0 -58.5 11.5t-45.5 31.5t-29 46.5t-10 56.5q0 33 13 61.5t35 49t51.5 32.5t61.5 12t59 -11.5t46.5 -31.5t30 -46.5t10.5 -55.5q0 -34 -13.5 -62.5t-36 -49.5
t-52.5 -32.5t-62 -11.5zM1022 1478q-32 0 -58.5 11.5t-45.5 31.5t-29 46.5t-10 56.5q0 33 13 61.5t35.5 49t52 32.5t61.5 12t59 -11.5t46 -31.5t29.5 -46.5t10.5 -55.5q0 -34 -13.5 -62.5t-36 -49.5t-52.5 -32.5t-62 -11.5z" />
    <glyph glyph-name="Egrave" unicode="&#xc8;" horiz-adv-x="1153" 
d="M338 1434h913l-53 -232h-594l-84 -364h438l-51 -220h-438l-90 -393h641l-51 -225h-642h-319zM721 1479l-172 176v86h283l69 -199v-63h-180z" />
    <glyph glyph-name="Iacute" unicode="&#xcd;" horiz-adv-x="588" 
d="M344 1434h322l-330 -1434h-322zM417 1542l96 199h291v-86l-225 -176h-162v63z" />
    <glyph glyph-name="Icircumflex" unicode="&#xce;" horiz-adv-x="588" 
d="M344 1434h322l-330 -1434h-322zM220 1554l215 195h205l150 -195v-75h-168l-107 86l-143 -86h-152v75z" />
    <glyph glyph-name="Idieresis" unicode="&#xcf;" horiz-adv-x="588" 
d="M344 1434h322l-330 -1434h-322zM329 1478q-32 0 -58.5 11.5t-45.5 31.5t-29 46.5t-10 56.5q0 33 13 61.5t35 49t51.5 32.5t61.5 12t59 -11.5t46.5 -31.5t30 -46.5t10.5 -55.5q0 -34 -13.5 -62.5t-36 -49.5t-52.5 -32.5t-62 -11.5zM722 1478q-32 0 -58.5 11.5t-45.5 31.5
t-29 46.5t-10 56.5q0 33 13 61.5t35.5 49t52 32.5t61.5 12t59 -11.5t46 -31.5t29.5 -46.5t10.5 -55.5q0 -34 -13.5 -62.5t-36 -49.5t-52.5 -32.5t-62 -11.5z" />
    <glyph glyph-name="Igrave" unicode="&#xcc;" horiz-adv-x="588" 
d="M344 1434h322l-330 -1434h-322zM437 1479l-172 176v86h283l69 -199v-63h-180z" />
    <glyph glyph-name="Oacute" unicode="&#xd3;" horiz-adv-x="1495" 
d="M717 205q76 0 138 29.5t110 79t83 115t58 137t34 145t11 139.5q0 71 -14 139t-48.5 121.5t-91.5 86t-143 32.5q-77 0 -139.5 -30.5t-111 -81t-83.5 -116.5t-57.5 -138t-33.5 -145t-11 -136q0 -79 16 -148t52 -120t93 -80t138 -29zM707 -16q-142 0 -256 44t-193.5 123.5
t-122.5 191.5t-43 247q0 111 24 218.5t70.5 203t113 176t152 139t188 91t220.5 32.5q141 0 255.5 -44.5t194.5 -124.5t123.5 -191.5t43.5 -245.5q0 -106 -23 -211.5t-67.5 -201t-110 -177.5t-151 -142t-190.5 -94t-228 -34zM797 1542l96 199h291v-86l-225 -176h-162v63z" />
    <glyph glyph-name="Ocircumflex" unicode="&#xd4;" horiz-adv-x="1495" 
d="M717 205q76 0 138 29.5t110 79t83 115t58 137t34 145t11 139.5q0 71 -14 139t-48.5 121.5t-91.5 86t-143 32.5q-77 0 -139.5 -30.5t-111 -81t-83.5 -116.5t-57.5 -138t-33.5 -145t-11 -136q0 -79 16 -148t52 -120t93 -80t138 -29zM707 -16q-142 0 -256 44t-193.5 123.5
t-122.5 191.5t-43 247q0 111 24 218.5t70.5 203t113 176t152 139t188 91t220.5 32.5q141 0 255.5 -44.5t194.5 -124.5t123.5 -191.5t43.5 -245.5q0 -106 -23 -211.5t-67.5 -201t-110 -177.5t-151 -142t-190.5 -94t-228 -34zM600 1554l215 195h205l150 -195v-75h-168l-107 86
l-143 -86h-152v75z" />
    <glyph glyph-name="Ograve" unicode="&#xd2;" horiz-adv-x="1495" 
d="M717 205q76 0 138 29.5t110 79t83 115t58 137t34 145t11 139.5q0 71 -14 139t-48.5 121.5t-91.5 86t-143 32.5q-77 0 -139.5 -30.5t-111 -81t-83.5 -116.5t-57.5 -138t-33.5 -145t-11 -136q0 -79 16 -148t52 -120t93 -80t138 -29zM707 -16q-142 0 -256 44t-193.5 123.5
t-122.5 191.5t-43 247q0 111 24 218.5t70.5 203t113 176t152 139t188 91t220.5 32.5q141 0 255.5 -44.5t194.5 -124.5t123.5 -191.5t43.5 -245.5q0 -106 -23 -211.5t-67.5 -201t-110 -177.5t-151 -142t-190.5 -94t-228 -34zM817 1479l-172 176v86h283l69 -199v-63h-180z" />
    <glyph glyph-name="Uacute" unicode="&#xda;" horiz-adv-x="1364" 
d="M635 -16q-143 0 -252 40t-176.5 116t-89 187t11.5 253l197 854h319l-207 -893q-15 -66 -13 -124.5t27 -102.5t76 -69.5t134 -25.5q65 0 116 17t89.5 53t66 92.5t45.5 136.5l211 916h266l-215 -934q-27 -115 -73.5 -210t-119 -163t-174.5 -105.5t-239 -37.5zM821 1542
l96 199h291v-86l-225 -176h-162v63z" />
    <glyph glyph-name="Ucircumflex" unicode="&#xdb;" horiz-adv-x="1364" 
d="M635 -16q-143 0 -252 40t-176.5 116t-89 187t11.5 253l197 854h319l-207 -893q-15 -66 -13 -124.5t27 -102.5t76 -69.5t134 -25.5q65 0 116 17t89.5 53t66 92.5t45.5 136.5l211 916h266l-215 -934q-27 -115 -73.5 -210t-119 -163t-174.5 -105.5t-239 -37.5zM624 1554
l215 195h205l150 -195v-75h-168l-107 86l-143 -86h-152v75z" />
    <glyph glyph-name="Ugrave" unicode="&#xd9;" horiz-adv-x="1364" 
d="M635 -16q-143 0 -252 40t-176.5 116t-89 187t11.5 253l197 854h319l-207 -893q-15 -66 -13 -124.5t27 -102.5t76 -69.5t134 -25.5q65 0 116 17t89.5 53t66 92.5t45.5 136.5l211 916h266l-215 -934q-27 -115 -73.5 -210t-119 -163t-174.5 -105.5t-239 -37.5zM842 1479
l-172 176v86h283l69 -199v-63h-180z" />
    <glyph glyph-name="dotlessi" unicode="&#x131;" horiz-adv-x="532" 
d="M240 1075h163q36 0 60 -6.5t35.5 -27t10.5 -59.5t-15 -103l-201 -879h-299z" />
    <glyph glyph-name="circumflex" unicode="&#x2c6;" horiz-adv-x="819" 
d="M287 1227l217 207h205l147 -207v-76h-168l-104 96l-146 -96h-151v76z" />
    <glyph glyph-name="tilde" unicode="&#x2dc;" horiz-adv-x="819" 
d="M678 1157q-36 0 -66.5 9t-57 19.5t-48.5 19.5t-41 9q-29 0 -46 -15t-28 -44h-153v78q32 96 87.5 144t137.5 48q36 0 67 -8.5t57.5 -18t49 -18t41.5 -8.5q28 0 43.5 14.5t28.5 40.5h153v-77q-65 -193 -225 -193z" />
    <glyph glyph-name="macron" unicode="&#xaf;" horiz-adv-x="819" 
d="M346 1397h533l-48 -201h-532z" />
    <glyph glyph-name="breve" unicode="&#x2d8;" horiz-adv-x="819" 
d="M580 1153q-62 0 -109 17.5t-79.5 46t-51 65.5t-23.5 76v76h191q0 -39 17 -62.5t61 -23.5q43 0 66.5 22.5t31.5 63.5h186v-76q-11 -39 -35 -76t-60.5 -65.5t-85.5 -46t-109 -17.5z" />
    <glyph glyph-name="dotaccent" unicode="&#x2d9;" horiz-adv-x="819" 
d="M582 1161q-34 0 -62 12t-48 32.5t-31 48t-11 59.5q0 34 14 64t37.5 51.5t54 34t64.5 12.5t62 -12t48.5 -33t32 -48.5t11.5 -58.5q0 -35 -14 -65t-38 -51.5t-55 -33.5t-65 -12z" />
    <glyph glyph-name="ring" unicode="&#x2da;" horiz-adv-x="819" 
d="M598 1286q35 0 58.5 24t23.5 62q0 34 -20 53t-52 19q-35 0 -56.5 -24t-21.5 -66q0 -31 18 -49.5t50 -18.5zM596 1159q-43 0 -81 13t-66 38t-44 61t-16 81q0 50 18.5 90.5t49.5 69t71 44t84 15.5q43 0 81 -13.5t66 -39t44 -62t16 -82.5q0 -50 -18.5 -90t-49 -67.5
t-71 -42.5t-84.5 -15z" />
    <glyph glyph-name="cedilla" unicode="&#xb8;" horiz-adv-x="819" 
d="M231 -358q-34 0 -59 2.5t-45 8t-35.5 13t-30.5 17.5l27 114h59q8 -12 24.5 -20t47.5 -8q26 0 45 8.5t19 29.5q0 17 -14.5 27t-51.5 10h-53l37 156h141l-12 -49q34 -2 59 -12.5t41.5 -28.5t24.5 -41.5t8 -50.5q0 -51 -20 -85t-53 -54.5t-74.5 -28.5t-84.5 -8z" />
    <glyph glyph-name="hungarumlaut" unicode="&#x2dd;" horiz-adv-x="819" 
d="M313 1208l95 226h235v-86l-182 -197h-148v57zM647 1208l94 226h236v-86l-182 -197h-148v57z" />
    <glyph glyph-name="ogonek" unicode="&#x2db;" horiz-adv-x="819" 
d="M274 -338q-83 0 -129.5 42t-46.5 108q0 34 13 63.5t34 53t47.5 41.5t53.5 30h180q-46 -29 -74 -56t-28 -61q0 -25 16.5 -37t58.5 -12h39l-32 -137q-26 -16 -59.5 -25.5t-72.5 -9.5z" />
    <glyph glyph-name="caron" unicode="&#x2c7;" horiz-adv-x="819" 
d="M317 1358v76h168l105 -97l145 97h152v-76l-217 -207h-205z" />
    <glyph glyph-name="grave.cap" horiz-adv-x="819" 
d="M557 1479l-172 176v86h283l69 -199v-63h-180z" />
    <glyph glyph-name="dieresis.cap" horiz-adv-x="819" 
d="M459 1478q-32 0 -58.5 11.5t-45.5 31.5t-29 46.5t-10 56.5q0 33 13 61.5t35 49t51.5 32.5t61.5 12t59 -11.5t46.5 -31.5t30 -46.5t10.5 -55.5q0 -34 -13.5 -62.5t-36 -49.5t-52.5 -32.5t-62 -11.5zM852 1478q-32 0 -58.5 11.5t-45.5 31.5t-29 46.5t-10 56.5q0 33 13 61.5
t35.5 49t52 32.5t61.5 12t59 -11.5t46 -31.5t29.5 -46.5t10.5 -55.5q0 -34 -13.5 -62.5t-36 -49.5t-52.5 -32.5t-62 -11.5z" />
    <glyph glyph-name="macron.cap" horiz-adv-x="819" 
d="M418 1704h533l-48 -201h-532z" />
    <glyph glyph-name="acute.cap" horiz-adv-x="819" 
d="M547 1542l96 199h291v-86l-225 -176h-162v63z" />
    <glyph glyph-name="circumflex.cap" horiz-adv-x="819" 
d="M350 1554l215 195h205l150 -195v-75h-168l-107 86l-143 -86h-152v75z" />
    <glyph glyph-name="caron.cap" horiz-adv-x="819" 
d="M961 1673l-216 -194h-204l-150 194v76h168l107 -86l143 86h152v-76z" />
    <glyph glyph-name="breve.cap" horiz-adv-x="819" 
d="M659 1481q-62 0 -109 16.5t-80 43t-51.5 60t-23.5 68.5v76h191q0 -12 4.5 -24.5t14 -22.5t24.5 -16.5t37 -6.5q43 0 65.5 20.5t30.5 49.5h186v-76q-11 -35 -35 -68.5t-60 -60t-84.5 -43t-109.5 -16.5z" />
    <glyph glyph-name="dotaccent.cap" horiz-adv-x="819" 
d="M658 1483q-34 0 -62 12t-48 32.5t-31 48t-11 59.5q0 34 14 64t37.5 51.5t54 34t64.5 12.5t62 -12t48.5 -33t32 -48.5t11.5 -58.5q0 -35 -14 -65t-38 -51.5t-55 -33.5t-65 -12z" />
    <glyph glyph-name="ring.cap" horiz-adv-x="819" 
d="M674 1610q35 0 58.5 24t23.5 62q0 34 -20 53t-52 19q-35 0 -56.5 -24t-21.5 -66q0 -31 18 -49.5t50 -18.5zM672 1483q-43 0 -81 13t-66 38t-44 61t-16 81q0 50 18.5 90.5t49.5 69t71 44t84 15.5q43 0 81 -13.5t66 -39t44 -62t16 -82.5q0 -50 -18.5 -90t-49 -67.5
t-71 -42.5t-84.5 -15z" />
    <glyph glyph-name="tilde.cap" horiz-adv-x="819" 
d="M758 1481q-36 0 -66.5 9t-57 19.5t-48.5 19.5t-41 9q-29 0 -46 -15t-28 -44h-153v78q32 96 87.5 144t137.5 48q36 0 67 -8.5t57.5 -18t49 -18t41.5 -8.5q28 0 43.5 14.5t28.5 40.5h153v-77q-65 -193 -225 -193z" />
    <glyph glyph-name="hungarumlaut.cap" horiz-adv-x="819" 
d="M385 1536l82 205h235v-86l-170 -176h-147v57zM719 1536l82 205h235v-86l-170 -176h-147v57z" />
    </font>
</defs>
</svg>
